<svg width="257" height="156" viewBox="0 0 257 156" fill="none" xmlns="http://www.w3.org/2000/svg">
<g clip-path="url(#clip0_819_1535)">
<path d="M173.415 218.768L154.993 230.785C154.993 230.785 137.07 208.344 132.891 194.404C129.936 184.473 148.162 136.322 148.162 136.322L168.208 135.9C168.208 135.9 152.953 182.366 154.191 187.007C155.739 192.697 173.415 218.768 173.415 218.768Z" fill="#263238"/>
<path d="M155.009 180.834C158.052 166.956 168.25 135.911 168.25 135.911L156.788 136.147L155.009 180.834Z" fill="#37474F"/>
<path d="M190.773 168.334L203.567 153.058C206.527 149.974 210.722 145.209 211.513 145.111C213.055 145.368 238.827 168.483 239.444 169.583C240.061 170.683 236.982 172.528 235.281 172.425C233.579 172.323 219.917 167.892 219.917 167.892L206.353 183.137L190.773 168.334Z" fill="#D3766A"/>
<path d="M235.286 172.425C234.427 172.369 230.588 171.238 226.959 170.117C231.107 170.631 239.074 170.066 204.101 152.492C207.005 149.408 210.783 145.204 211.508 145.116C213.05 145.373 238.827 168.483 239.444 169.583C240.061 170.683 236.982 172.528 235.286 172.425Z" fill="#263238"/>
<path d="M148.348 136.327C148.348 136.327 152.974 152.025 153.611 152.384C154.336 152.791 157.692 153.854 158.864 154.317C158.864 154.317 166.41 186.185 172.398 195.113C174.454 198.197 184.282 201.6 189.309 198.634C201.095 191.669 215.795 172.523 215.795 172.523L200.067 157.231L185.109 173.787C181.948 167.198 180.673 154.142 180.673 154.142C180.673 154.142 180.488 141.292 176.047 135.741L148.348 136.327Z" fill="#263238"/>
<path d="M151.483 151.768C154.882 152.329 158.161 153.468 161.177 155.134C161.249 155.175 161.218 155.309 161.13 155.278C157.887 154.204 154.68 153.032 151.447 151.942C151.424 151.938 151.403 151.924 151.39 151.904C151.377 151.884 151.373 151.86 151.377 151.837C151.382 151.814 151.396 151.794 151.416 151.781C151.435 151.768 151.46 151.763 151.483 151.768Z" fill="#37474F"/>
<path d="M152.752 139.159C152.752 139.092 152.871 139.087 152.886 139.159C153.215 140.424 153.523 143.929 153.688 145.224C153.775 145.893 153.873 146.561 153.955 147.229C154.037 147.897 154.099 148.581 154.238 149.239C154.269 149.53 154.367 149.811 154.525 150.058C154.683 150.305 154.896 150.512 155.148 150.663C155.389 150.755 155.656 150.754 155.896 150.659C156.136 150.563 156.331 150.381 156.443 150.149C156.682 149.576 156.761 148.948 156.669 148.334C156.638 147.656 156.597 146.982 156.561 146.304C156.474 144.762 156.119 141.066 156.047 139.524C156.047 139.457 156.15 139.432 156.16 139.498C156.489 141.01 156.941 144.674 157.096 146.206C157.178 147.005 157.24 147.801 157.281 148.596C157.357 149.232 157.243 149.876 156.952 150.447C156.824 150.69 156.636 150.897 156.406 151.047C156.175 151.198 155.91 151.286 155.636 151.305V151.305C155.667 151.386 155.686 151.471 155.692 151.557C155.713 151.74 155.713 151.924 155.692 152.107C155.681 152.187 155.664 152.266 155.641 152.343C155.621 152.436 155.586 152.524 155.538 152.605L155.569 152.544C155.533 152.657 155.471 152.755 155.435 152.868C155.435 152.879 155.431 152.889 155.423 152.897C155.416 152.904 155.405 152.909 155.394 152.909C155.383 152.909 155.373 152.904 155.365 152.897C155.358 152.889 155.353 152.879 155.353 152.868C155.353 152.703 155.286 152.554 155.266 152.39C155.248 152.208 155.248 152.026 155.266 151.845C155.266 151.701 155.307 151.541 155.317 151.408C155.317 151.362 155.317 151.315 155.317 151.264C154.909 151.166 154.547 150.932 154.289 150.601C153.93 150.069 153.715 149.452 153.667 148.812C153.554 148.046 153.441 147.27 153.359 146.515C153.261 145.636 153.174 144.757 153.092 143.873C153.009 142.989 152.686 139.997 152.752 139.159Z" fill="#37474F"/>
<path d="M165.891 98.4042C167.9 97.5869 173.529 98.1626 175.801 100.64C178.072 103.118 178.694 107.656 177.857 108.252C177.019 108.849 172.974 109.193 169.987 108.15C167.001 107.106 164.904 98.8102 165.891 98.4042Z" fill="#263238"/>
<path d="M165.89 98.4196C165.819 98.4196 165.788 98.3014 165.89 98.2859C167.71 97.9261 169.771 98.2088 171.601 98.4144C173.099 98.4989 174.562 98.8945 175.898 99.5761C176.522 99.9337 177.061 100.422 177.478 101.008C177.895 101.593 178.18 102.262 178.314 102.968C178.648 104.572 178.751 106.566 178.201 108.108C178.201 108.155 178.103 108.155 178.108 108.108C178.432 104.917 178.53 101.072 175.153 99.5144C172.264 98.1986 168.939 98.5584 165.89 98.4196Z" fill="#263238"/>
<path d="M177.404 107.512C179.27 107.435 184.6 110.082 185.998 113.434C187.396 116.785 185.448 122.382 184.621 122.912C183.793 123.441 179.183 120.794 177.45 118.579C176.289 117.093 176.659 115.068 176.736 113.105C176.844 110.211 177.116 107.523 177.404 107.512Z" fill="#263238"/>
<path d="M176.278 118.327C175.132 114.883 176.535 111.033 177.198 107.63C177.198 107.6 177.26 107.605 177.26 107.63C177.116 110.812 175.743 113.881 176.232 117.093C176.337 118.043 176.669 118.953 177.199 119.747C177.73 120.541 178.443 121.196 179.28 121.658C180.822 122.434 182.6 122.608 184.271 122.896C184.379 122.896 184.338 123.081 184.23 123.066C180.914 122.583 177.45 121.884 176.278 118.327Z" fill="#263238"/>
<path d="M177.857 107.769C177.754 107.744 177.795 107.584 177.893 107.615C180.699 108.396 184.133 109.671 185.973 112.051C187.967 114.621 186.965 117.885 186.065 120.686C186.063 120.692 186.059 120.696 186.054 120.7C186.049 120.703 186.043 120.705 186.037 120.705C186.031 120.705 186.025 120.703 186.02 120.7C186.015 120.696 186.011 120.692 186.009 120.686C186.888 117.849 187.726 114.374 185.541 111.886C183.66 109.738 180.509 108.556 177.857 107.769Z" fill="#263238"/>
<path d="M183.798 122.351C186.275 124.089 189.37 126.751 188.938 129.491C188.506 132.231 185.432 136.363 185.124 136.373C184.816 136.384 179.861 133.551 178.75 130.344C177.64 127.137 183.479 122.125 183.798 122.351Z" fill="#263238"/>
<path d="M184.883 136.594C186.867 134.765 189.175 132.272 189.201 129.398C189.201 126.618 186.23 124.12 184.174 122.655V122.614C186.41 123.935 189.314 126.402 189.401 129.224C189.488 132.045 187.114 135.165 184.914 136.682C184.893 136.707 184.842 136.63 184.883 136.594Z" fill="#263238"/>
<path d="M184.081 135.232C185.464 135.078 188.137 135.844 189.859 137.684C192.804 140.83 193.673 139.226 198.165 137.617C201.958 136.24 205.083 139.432 204.544 142.397C204.544 142.397 204.055 139.468 201.12 139.827C197.61 140.254 193.41 147.023 187.962 145.302C180.879 143.081 184.081 135.232 184.081 135.232Z" fill="#263238"/>
<path d="M186.559 135.947C186.541 135.943 186.526 135.932 186.516 135.916C186.507 135.901 186.503 135.882 186.507 135.864C186.512 135.847 186.523 135.831 186.538 135.822C186.553 135.812 186.572 135.809 186.59 135.813C187.33 135.962 188.037 136.244 188.677 136.646C189.509 137.16 190.064 137.972 190.846 138.553C192.84 140.028 195.138 138.399 196.921 137.391C199.306 136.034 202.061 136.209 203.798 138.512C203.804 138.518 203.806 138.527 203.805 138.536C203.804 138.544 203.8 138.552 203.793 138.558C203.786 138.563 203.778 138.566 203.769 138.565C203.76 138.564 203.753 138.56 203.747 138.553C203.206 137.845 202.48 137.3 201.65 136.977C200.819 136.654 199.916 136.566 199.039 136.723C197.332 137.047 196.027 138.342 194.413 138.928C193.318 139.329 192.11 139.55 191.056 138.928C190.51 138.534 190.005 138.084 189.55 137.586C188.708 136.795 187.679 136.231 186.559 135.947V135.947Z" fill="#263238"/>
<path d="M183.767 136.06C183.767 136.029 183.829 136.06 183.824 136.06C183.382 138.193 182.863 140.377 183.731 142.49C184.667 144.762 187.036 146.088 189.416 146.242C192.084 146.422 193.528 144.52 195.255 142.824C196.499 141.596 197.825 140.46 199.563 140.018C199.614 140.018 199.64 140.09 199.563 140.11C196.962 141.087 195.343 143.127 193.395 144.957C191.781 146.453 189.941 146.772 187.843 146.139C183.217 144.767 182.436 140.182 183.767 136.06Z" fill="#263238"/>
<path d="M167.54 94.5749C168.126 93.8296 169.278 94.7548 168.686 95.5052C168.095 96.2556 166.949 95.3202 167.54 94.5749Z" fill="#1C9B88"/>
<path d="M166.965 95.8239C167.089 95.6733 167.267 95.5777 167.461 95.558C167.656 95.5383 167.85 95.596 168.001 95.7186C168.153 95.8413 168.25 96.0189 168.272 96.2128C168.293 96.4068 168.237 96.6013 168.116 96.7542C167.992 96.9049 167.814 97.0004 167.62 97.0201C167.425 97.0399 167.231 96.9821 167.08 96.8595C166.928 96.7368 166.831 96.5592 166.809 96.3653C166.788 96.1714 166.844 95.9768 166.965 95.8239Z" fill="#1C9B88"/>
<path d="M166.178 96.965C166.306 96.829 166.481 96.7466 166.668 96.7341C166.854 96.7217 167.038 96.7802 167.183 96.898C167.328 97.0157 167.424 97.1839 167.45 97.3689C167.476 97.5539 167.431 97.7419 167.324 97.8953C166.739 98.6355 165.592 97.7154 166.178 96.965Z" fill="#1C9B88"/>
<path d="M165.274 97.9673C165.402 97.8313 165.577 97.7489 165.763 97.7364C165.95 97.724 166.134 97.7825 166.279 97.9003C166.424 98.018 166.519 98.1862 166.545 98.3712C166.572 98.5562 166.527 98.7442 166.42 98.8976C165.834 99.6635 164.683 98.7126 165.274 97.9673Z" fill="#1C9B88"/>
<path d="M164.185 98.8154C164.309 98.6647 164.487 98.5692 164.681 98.5495C164.875 98.5297 165.069 98.5875 165.221 98.7101C165.373 98.8328 165.47 99.0104 165.492 99.2043C165.513 99.3982 165.457 99.5928 165.336 99.7457C165.212 99.8963 165.033 99.9919 164.839 100.012C164.645 100.031 164.451 99.9736 164.299 99.851C164.148 99.7283 164.05 99.5507 164.029 99.3568C164.007 99.1628 164.063 98.9683 164.185 98.8154V98.8154Z" fill="#1C9B88"/>
<path d="M163.007 99.4322C163.131 99.2815 163.309 99.186 163.503 99.1663C163.698 99.1465 163.892 99.2043 164.043 99.3269C164.195 99.4496 164.292 99.6272 164.314 99.8211C164.335 100.015 164.279 100.21 164.158 100.363C163.572 101.108 162.421 100.177 163.007 99.4322Z" fill="#1C9B88"/>
<path d="M162.313 111.059C158.345 113.207 140.509 117.895 134.737 113.978C128.851 109.985 123.696 92.7861 122.915 90.653C121.044 85.657 136.793 84.0738 137.363 85.4462C139.316 90.3138 141.989 103.256 144.127 103.806C148.63 104.973 152.901 104.922 160.061 105.765C165.073 106.345 166.692 108.694 162.313 111.059Z" fill="#D3766A"/>
<path d="M123.593 91.8609C122.565 90.2521 118.489 82.4136 117.862 80.003C117.235 77.5923 115.94 70.5248 117.739 69.8566C119.538 69.1884 120.083 71.229 120.083 71.229C120.083 71.229 120.006 68.145 121.877 67.631C123.748 67.117 124.508 70.3655 124.508 70.3655C124.508 70.3655 124.657 67.2044 126.564 66.8343C128.471 66.4642 128.677 69.8052 128.677 69.8052C128.677 69.8052 128.677 66.9114 130.378 67.2352C132.434 67.6618 131.807 72.9971 132.696 75.6083C132.897 76.1994 137.651 87.3275 137.651 87.3275L123.593 91.8609Z" fill="#D3766A"/>
<path d="M128.621 69.4968C128.184 73.4238 128.667 75.2176 130.363 78.718C130.399 78.7848 130.302 78.8516 130.26 78.7796C128.292 75.5055 127.356 73.3467 128.436 69.466C128.497 69.2758 128.652 69.3375 128.621 69.4968Z" fill="#263238"/>
<path d="M124.509 70.0314C124.411 74.1434 124.92 76.1017 126.426 79.895C126.426 79.9516 126.359 79.9927 126.333 79.9413C124.545 76.3433 123.66 74.1639 124.303 70.0622C124.349 69.8772 124.509 69.8515 124.509 70.0314Z" fill="#263238"/>
<path d="M120.165 71.4192C120.355 75.4129 120.823 77.5872 122.735 81.0721C122.745 81.0884 122.749 81.1082 122.744 81.127C122.74 81.1458 122.728 81.1621 122.712 81.1723C122.696 81.1825 122.676 81.1858 122.657 81.1815C122.638 81.1772 122.622 81.1655 122.612 81.1492C120.294 77.7773 119.687 75.084 120.042 71.4397C120.067 71.1879 120.15 71.1673 120.165 71.4192Z" fill="#263238"/>
<path d="M138.757 89.5479C138.757 89.5479 140.206 84.814 140.386 82.5935C140.566 80.373 138.186 71.8561 136.33 72.2673C133.915 72.7813 134.321 77.9829 134.85 80.4913C134.85 80.4913 129.268 81.7094 128.749 85.4925C128.23 89.2755 138.757 89.5479 138.757 89.5479Z" fill="#D3766A"/>
<path d="M135.704 72.6271C133.848 74.6831 134.758 77.9521 135.092 80.4347C135.097 80.4708 135.094 80.5077 135.082 80.5423C135.071 80.577 135.051 80.6084 135.025 80.6339C134.999 80.6595 134.967 80.6785 134.932 80.6895C134.898 80.7004 134.861 80.7029 134.825 80.6969C132.517 81.3651 129.458 82.9739 128.657 85.3743C128.657 85.3893 128.651 85.4036 128.64 85.4142C128.629 85.4248 128.615 85.4308 128.6 85.4308C128.585 85.4308 128.571 85.4248 128.56 85.4142C128.55 85.4036 128.544 85.3893 128.544 85.3743C129.058 82.6809 131.941 80.8511 134.516 80.2857C134.136 77.7516 133.37 74.4415 135.693 72.6373C135.698 72.6014 135.714 72.6168 135.704 72.6271Z" fill="#263238"/>
<path d="M148.019 136.332L176.289 135.736C176.289 135.736 172.316 113.675 169.093 108.314C166.95 104.716 164.133 104.608 161.414 106.027C160.735 106.381 151.648 113.896 150.373 116.924C149.242 119.596 150.841 123.179 150.841 123.179L148.019 136.332Z" fill="#1C9B88"/>
<path d="M160.488 123.271C159.276 123.105 158.052 123.027 156.828 123.04C156.217 123.04 155.615 123.097 155.009 123.153C154.706 123.179 154.407 123.2 154.104 123.215C153.787 123.239 153.468 123.227 153.153 123.179C153.128 123.179 153.117 123.21 153.153 123.22C153.442 123.302 153.735 123.364 154.032 123.405C154.321 123.438 154.611 123.45 154.901 123.441C155.518 123.441 156.135 123.395 156.751 123.379C157.995 123.343 159.239 123.313 160.483 123.379C160.488 123.374 160.524 123.277 160.488 123.271Z" fill="#263238"/>
<path d="M163.161 124.999C162.207 124.67 161.234 124.397 160.247 124.181C159.733 124.073 159.255 123.996 158.756 123.929L158.037 123.847C157.77 123.821 157.523 123.847 157.24 123.801C157.214 123.801 157.204 123.837 157.24 123.842C157.487 123.878 157.754 123.955 157.975 124.007L158.715 124.156L160.196 124.459C161.188 124.654 162.169 124.855 163.151 125.081C163.197 125.096 163.208 125.019 163.161 124.999Z" fill="#263238"/>
<path d="M166.95 106.407C163.747 105.893 165.809 120.558 169.705 125.286C172.126 128.232 173.159 120.146 172.234 116.502C171.308 112.858 168.343 106.633 166.95 106.407Z" fill="#D3766A"/>
<path d="M166.43 112.693C172.546 122.285 179.573 133.223 185.561 133.356C190.973 133.48 199.809 129.182 209.431 124.582C211.343 123.667 203.453 109.162 201.516 110.35C197.697 112.673 189.498 118.959 186.928 119.257C185.823 119.391 176.581 112.22 169.833 107.569C163.901 103.477 165.243 110.828 166.43 112.693Z" fill="#D3766A"/>
<path d="M170.08 119.01L170.491 119.391C169.956 118.63 169.442 117.844 168.949 117.032H168.974C169.632 117.849 170.27 118.676 170.892 119.535C171.185 119.941 172.161 121.431 172.5 121.879C172.536 121.93 172.459 122.048 172.418 121.997C172.1 121.565 171.082 120.254 170.809 119.879C170.698 119.798 170.592 119.71 170.491 119.617C170.321 119.463 170.162 119.309 170.002 119.139C169.689 118.805 169.386 118.46 169.082 118.111C169.411 118.414 169.74 118.717 170.08 119.01Z" fill="#263238"/>
<path d="M206.188 125.877C208.038 125.461 216.468 122.824 218.632 121.565C220.796 120.306 226.702 116.235 225.905 114.492C225.108 112.75 223.279 113.804 223.279 113.804C223.279 113.804 225.504 111.686 224.543 110.005C223.582 108.324 220.791 110.057 220.791 110.057C220.791 110.057 222.919 107.718 221.819 106.109C220.719 104.5 218.221 106.71 218.221 106.71C218.221 106.71 220.277 104.654 218.822 103.709C217.08 102.568 213.734 106.767 211.256 107.98C210.691 108.252 199.46 112.745 199.46 112.745L206.188 125.877Z" fill="#D3766A"/>
<path d="M218.467 106.51C215.995 109.594 214.355 110.514 210.706 111.784C210.634 111.784 210.655 111.922 210.706 111.902C214.458 110.971 216.637 110.123 218.622 106.618C218.719 106.448 218.57 106.345 218.467 106.51Z" fill="#263238"/>
<path d="M220.981 109.789C218.139 112.77 216.396 113.783 212.644 115.397C212.593 115.397 212.644 115.515 212.68 115.495C216.515 114.22 218.658 113.31 221.11 109.943C221.223 109.805 221.115 109.656 220.981 109.789Z" fill="#263238"/>
<path d="M223.083 113.865C220.123 116.548 218.262 117.746 214.417 118.841C214.398 118.845 214.382 118.856 214.371 118.873C214.36 118.889 214.357 118.909 214.361 118.928C214.365 118.947 214.376 118.964 214.393 118.975C214.409 118.985 214.429 118.989 214.448 118.985C218.478 118.245 220.812 116.769 223.155 113.963C223.315 113.768 223.274 113.696 223.083 113.865Z" fill="#263238"/>
<path d="M197.121 113.495C197.121 113.495 199.449 109.126 200.894 107.435C202.338 105.744 210.048 101.406 211.076 103.02C212.407 105.102 208.45 108.479 206.296 109.877C206.296 109.877 209.38 114.693 207.057 117.731C204.733 120.768 197.121 113.495 197.121 113.495Z" fill="#D3766A"/>
<path d="M211.256 103.714C211.102 106.484 208.172 108.139 206.163 109.656C206.132 109.676 206.107 109.704 206.089 109.737C206.072 109.77 206.063 109.806 206.063 109.843C206.063 109.88 206.072 109.917 206.089 109.95C206.107 109.982 206.132 110.01 206.163 110.031C207.319 112.133 208.337 115.438 207.191 117.71C207.183 117.724 207.181 117.74 207.186 117.755C207.19 117.77 207.2 117.782 207.214 117.79C207.227 117.797 207.243 117.799 207.258 117.795C207.273 117.79 207.286 117.78 207.293 117.767C208.835 115.5 208.09 112.169 206.677 109.949C208.733 108.407 211.626 106.633 211.262 103.714C211.282 103.693 211.256 103.693 211.256 103.714Z" fill="#263238"/>
<path d="M170.804 151.729L170.481 151.097L172.895 149.867L173.217 150.499L170.804 151.729Z" fill="#455A64"/>
<path opacity="0.1" d="M188.424 154.893C189.378 154.082 190.29 153.225 191.158 152.323C190.696 151.362 190.171 150.433 189.586 149.542C189.586 149.542 189.586 149.516 189.586 149.542C190.199 150.389 190.765 151.269 191.282 152.179C191.58 151.86 191.873 151.531 192.161 151.187C191.467 149.794 190.66 148.46 189.75 147.198C189.724 147.162 189.776 147.111 189.801 147.147C190.723 148.365 191.58 149.629 192.371 150.935C192.706 150.519 193.029 150.087 193.343 149.624C193.347 149.618 193.353 149.614 193.361 149.612C193.368 149.611 193.375 149.612 193.381 149.617C193.388 149.621 193.392 149.627 193.393 149.634C193.395 149.641 193.393 149.649 193.389 149.655C193.125 150.176 192.828 150.679 192.5 151.161C192.834 151.732 193.137 152.318 193.42 152.914C193.78 152.467 194.124 151.999 194.448 151.506C194.453 151.496 194.462 151.489 194.473 151.486C194.484 151.483 194.495 151.485 194.505 151.49C194.514 151.496 194.521 151.505 194.524 151.515C194.527 151.526 194.525 151.537 194.52 151.547C194.211 152.092 193.867 152.617 193.492 153.119C193.763 153.715 194 154.326 194.201 154.949C194.237 155.062 194.052 155.124 194.001 155.016C193.749 154.502 193.487 153.962 193.25 153.438C192.973 153.788 192.685 154.127 192.377 154.466C192.802 155.46 193.131 156.493 193.358 157.55C193.384 157.679 193.199 157.709 193.158 157.591C192.844 156.61 192.51 155.653 192.13 154.708C191.478 155.374 190.752 155.964 189.966 156.466C189.899 156.507 189.827 156.404 189.889 156.353C190.636 155.754 191.349 155.116 192.027 154.44C191.791 153.854 191.549 153.274 191.287 152.708C190.475 153.632 189.52 154.42 188.46 155.042C188.45 155.044 188.44 155.045 188.43 155.043C188.42 155.041 188.41 155.038 188.402 155.033C188.393 155.027 188.386 155.021 188.38 155.012C188.374 155.004 188.37 154.995 188.367 154.985C188.365 154.975 188.365 154.965 188.366 154.955C188.368 154.945 188.371 154.936 188.376 154.927C188.382 154.919 188.389 154.911 188.397 154.905C188.405 154.899 188.414 154.895 188.424 154.893V154.893ZM193.173 153.197C192.891 152.605 192.608 152.014 192.31 151.428C192.053 151.793 191.796 152.148 191.487 152.487C191.785 153.037 192.048 153.603 192.299 154.173C192.603 153.86 192.87 153.531 193.173 153.197V153.197Z" fill="black"/>
<path opacity="0.1" d="M167.91 151.881C168.253 151.798 168.577 151.711 168.882 151.619C168.728 151.171 168.584 150.719 168.435 150.267C168.139 150.348 167.836 150.402 167.53 150.426C167.458 150.426 167.448 150.313 167.53 150.303C167.823 150.241 168.106 150.159 168.388 150.077C168.095 149.157 167.813 148.231 167.525 147.316C167.525 147.275 167.581 147.26 167.597 147.316C167.885 148.236 168.219 149.141 168.563 150.035C168.81 149.958 169.051 149.866 169.293 149.768C168.779 148.36 168.373 146.926 167.957 145.517C167.957 145.466 168.023 145.451 168.039 145.517C168.517 146.915 169.067 148.288 169.581 149.665C170.31 149.336 171.019 148.964 171.704 148.55C171.704 148.55 171.74 148.55 171.704 148.581C171.049 149.049 170.362 149.47 169.648 149.84C169.828 150.298 170.007 150.76 170.162 151.218C170.729 150.997 171.276 150.727 171.796 150.411C171.796 150.411 171.837 150.411 171.796 150.447C171.307 150.779 170.791 151.071 170.254 151.32C170.485 151.932 170.712 152.549 170.922 153.166C170.958 153.274 170.784 153.33 170.737 153.233C170.449 152.657 170.187 152.061 169.941 151.459C169.71 151.555 169.475 151.639 169.236 151.711C169.75 152.97 170.264 154.225 170.701 155.499C170.742 155.607 170.563 155.669 170.511 155.566C169.915 154.344 169.4 153.083 168.969 151.793C168.632 151.884 168.289 151.946 167.941 151.978C167.869 151.984 167.844 151.896 167.91 151.881ZM169.864 151.305C169.684 150.853 169.514 150.4 169.35 149.943C169.114 150.049 168.872 150.14 168.625 150.215L169.139 151.541L169.864 151.305Z" fill="black"/>
<path d="M165.68 106.895C165.49 107.409 162.529 110.545 160.119 110.134C159.332 109.995 159.882 105.672 159.882 105.672L159.851 105.348L159.404 100.753L165.058 98.029L165.87 97.6794C165.87 97.6794 165.911 98.9439 165.942 100.517C165.942 100.594 165.942 100.666 165.942 100.743C165.942 100.82 165.942 100.918 165.942 101C165.942 101.236 165.942 101.478 165.942 101.714C165.942 101.951 165.942 102.074 165.942 102.264C165.942 102.454 165.942 102.645 165.942 102.84C165.947 104.196 165.86 105.551 165.68 106.895V106.895Z" fill="#D3766A"/>
<path d="M165.957 100.517C165.352 101.717 164.491 102.772 163.437 103.606C162.382 104.441 161.159 105.035 159.851 105.348L159.404 100.753L165.058 98.029L165.87 97.6794C165.87 97.6794 165.926 98.9439 165.957 100.517Z" fill="#263238"/>
<path d="M155.446 90.8124C151.555 97.9159 155.369 101.051 156.905 101.889C158.298 102.65 163.135 105.06 167.741 98.3939C172.346 91.7273 170.254 87.6718 167.17 85.7855C164.086 83.8991 159.337 83.7295 155.446 90.8124Z" fill="#D3766A"/>
<path d="M157.826 90.6222C157.995 90.6813 158.166 90.7311 158.34 90.7713C158.523 90.8517 158.727 90.8697 158.921 90.8227C158.978 90.7948 159.025 90.7494 159.055 90.693C159.084 90.6365 159.095 90.5721 159.085 90.5091C159.044 90.3887 158.971 90.2814 158.874 90.1983C158.778 90.1152 158.661 90.0593 158.535 90.0362C158.293 89.9403 158.023 89.9403 157.78 90.0362C157.719 90.0609 157.668 90.1043 157.634 90.16C157.599 90.2157 157.584 90.2809 157.589 90.3461C157.594 90.4114 157.62 90.4733 157.662 90.5229C157.705 90.5726 157.762 90.6073 157.826 90.6222V90.6222Z" fill="#263238"/>
<path d="M162.724 93.2899C162.565 93.1819 162.436 93.0534 162.287 92.9352C162.118 92.8311 161.988 92.6739 161.917 92.488C161.905 92.4248 161.914 92.3593 161.944 92.3023C161.974 92.2453 162.023 92.2002 162.082 92.1745C162.203 92.1391 162.332 92.1366 162.455 92.1673C162.578 92.198 162.69 92.2608 162.781 92.3492C162.993 92.5034 163.141 92.7303 163.197 92.9866C163.206 93.0453 163.197 93.1051 163.172 93.159C163.148 93.213 163.108 93.2587 163.058 93.2906C163.008 93.3226 162.95 93.3396 162.891 93.3394C162.832 93.3393 162.774 93.3221 162.724 93.2899V93.2899Z" fill="#263238"/>
<path d="M160.668 94.4618C160.668 94.4618 160.668 94.5029 160.668 94.5235C160.39 95.0015 160.154 95.5926 160.493 95.9935C160.493 95.9935 160.493 96.0295 160.493 95.9935C159.974 95.6491 160.324 94.8678 160.668 94.4618Z" fill="#263238"/>
<path d="M161.378 94.1945C162.185 94.5594 161.378 96.1528 160.638 95.8136C159.898 95.4744 160.694 93.8861 161.378 94.1945Z" fill="#263238"/>
<path d="M161.645 94.431C161.743 94.5954 161.799 94.8216 161.958 94.945C162.118 95.0683 162.37 94.9449 162.58 94.873C162.58 94.873 162.606 94.873 162.58 94.9038C162.431 95.2122 162.159 95.4641 161.809 95.3459C161.662 95.2734 161.547 95.1482 161.487 94.995C161.427 94.8419 161.426 94.6718 161.486 94.5183C161.516 94.431 161.609 94.3693 161.645 94.431Z" fill="#263238"/>
<path d="M158.016 92.8684C158.016 92.8684 157.964 92.8684 157.954 92.8684C157.728 93.3824 157.383 93.8964 156.854 93.8553C156.854 93.8553 156.828 93.8553 156.854 93.8861C157.404 94.0968 157.882 93.3772 158.016 92.8684Z" fill="#263238"/>
<path d="M157.826 92.1334C157.06 91.681 156.212 93.2488 156.926 93.6754C157.641 94.102 158.468 92.5086 157.826 92.1334Z" fill="#263238"/>
<path d="M157.446 92.0563C157.276 92.0563 157.071 92.1591 156.932 92.0922C156.793 92.0254 156.721 91.7684 156.701 91.5474C156.701 91.5474 156.701 91.5474 156.665 91.5474C156.495 91.8455 156.428 92.2105 156.665 92.4212C156.901 92.6319 157.23 92.4623 157.461 92.2002C157.508 92.1591 157.513 92.0511 157.446 92.0563Z" fill="#263238"/>
<path d="M157.065 96.5486C157.109 96.9334 157.253 97.3001 157.481 97.6126C157.613 97.7775 157.793 97.8977 157.995 97.957C158.437 98.0855 158.658 97.7411 158.766 97.3967C158.824 97.215 158.859 97.0268 158.869 96.8365C158.252 96.9371 157.62 96.8362 157.065 96.5486Z" fill="#263238"/>
<path d="M157.482 97.6075C157.614 97.7723 157.793 97.8926 157.996 97.9518C158.438 98.0803 158.659 97.736 158.767 97.3916C158.56 97.2736 158.32 97.2306 158.086 97.2699C157.851 97.3093 157.638 97.4286 157.482 97.6075Z" fill="#FF9BBC"/>
<path d="M157.404 95.5001C157.404 95.5001 156.926 96.1785 156.751 96.5281C156.751 96.564 156.808 96.6206 156.921 96.6874C157.19 96.8936 157.511 97.0219 157.848 97.0581C158.185 97.0944 158.526 97.0373 158.833 96.893C158.874 96.893 158.833 96.8108 158.802 96.8159C158.208 96.8917 157.606 96.7726 157.085 96.4767C157.085 96.3687 157.939 95.3356 157.887 95.3048C157.607 95.1914 157.313 95.1153 157.014 95.0786C157.964 93.6342 159.147 92.3492 160.098 90.8946C160.106 90.8837 160.111 90.8697 160.109 90.8558C160.108 90.8418 160.101 90.829 160.09 90.8201C160.079 90.8112 160.065 90.8071 160.051 90.8085C160.037 90.81 160.024 90.8169 160.015 90.8278C158.708 92.1613 157.539 93.6234 156.525 95.1917C156.376 95.3818 157.24 95.4846 157.404 95.5001Z" fill="#263238"/>
<path d="M167.463 98.6046C166.671 98.1626 165.643 94.8833 167.494 90.8946C167.494 90.8946 166.075 94.5697 166.091 95.2174C166.106 95.865 165.52 93.3772 166.969 90.1596C165.621 90.3881 164.247 90.4227 162.888 90.2624C161.187 89.9489 160.277 89.4914 160.221 89.3321C160.164 89.1727 162.714 89.5479 163.644 89.1522C163.644 89.1522 158.756 89.0648 156.849 88.3092C156.628 88.2218 158.514 84.4645 162.256 83.9916C165.998 83.5187 169.514 86.9779 170.156 88.7358C170.156 88.7358 171.251 89.4349 171.626 92.3081C172.032 95.4281 168.316 99.0878 167.463 98.6046Z" fill="#263238"/>
<path d="M160.426 98.0444C160.906 98.2506 161.435 98.318 161.951 98.2389C162.467 98.1598 162.951 97.9374 163.347 97.5971C163.743 97.2567 164.036 96.8119 164.192 96.3134C164.348 95.8149 164.361 95.2826 164.229 94.7771C164.098 94.2716 163.827 93.8132 163.448 93.4539C163.069 93.0947 162.596 92.8491 162.084 92.745C161.573 92.6409 161.042 92.6826 160.552 92.8652C160.063 93.0479 159.635 93.3642 159.316 93.7782V93.7782C158.866 94.366 158.667 95.1085 158.763 95.8428C158.86 96.5771 159.243 97.2432 159.83 97.6948C160.012 97.8377 160.213 97.9552 160.426 98.0444V98.0444ZM162.482 93.259C162.666 93.3375 162.839 93.4395 162.996 93.5623C163.486 93.9391 163.813 94.4884 163.911 95.0981C164.009 95.7077 163.872 96.332 163.526 96.8435C163.18 97.355 162.652 97.7154 162.049 97.8511C161.447 97.9868 160.815 97.8876 160.283 97.5738C159.751 97.26 159.359 96.7552 159.187 96.1622C159.014 95.5692 159.074 94.9328 159.355 94.3826C159.635 93.8324 160.115 93.4098 160.696 93.201C161.277 92.9923 161.916 93.013 162.482 93.259V93.259Z" fill="#1C9B88"/>
<path d="M155.112 94.9141C156.094 95.3356 157.42 94.7136 158.145 93.4492C158.501 92.8518 158.663 92.1585 158.608 91.4652C158.601 91.167 158.518 90.8757 158.366 90.6191C158.214 90.3625 157.998 90.1493 157.74 90.0001C157.482 89.8509 157.19 89.7706 156.892 89.767C156.593 89.7635 156.299 89.8367 156.038 89.9797C155.408 90.278 154.888 90.7672 154.552 91.3778C153.786 92.709 153.966 94.2613 154.963 94.8319C155.011 94.8628 155.061 94.8903 155.112 94.9141V94.9141ZM157.405 90.2573C157.448 90.2736 157.489 90.2943 157.528 90.3189C157.73 90.4469 157.898 90.6216 158.018 90.8283C158.138 91.035 158.206 91.2676 158.217 91.5063C158.264 92.1212 158.118 92.7355 157.801 93.2642C157.138 94.4207 155.935 94.9809 155.118 94.508C154.3 94.0352 154.182 92.7193 154.845 91.5628C155.145 91.0222 155.604 90.5877 156.161 90.3189C156.353 90.2227 156.562 90.1676 156.776 90.1569C156.991 90.1463 157.205 90.1805 157.405 90.2573V90.2573Z" fill="#1C9B88"/>
<path d="M159.209 94.0917L159.507 93.9838C159.347 93.5469 158.834 92.7862 158.027 93.0329L158.119 93.331C158.839 93.11 159.193 94.0506 159.209 94.0917Z" fill="#1C9B88"/>
<path d="M168.749 100.285H169.067C169.067 100.141 169.114 98.8411 168.553 98.3939C167.993 97.9467 164.184 96.2094 164.02 96.1374L163.886 96.4253C164.991 96.9393 167.952 98.3116 168.353 98.6355C168.754 98.9593 168.764 99.9308 168.749 100.285Z" fill="#1C9B88"/>
<path d="M166.317 101.02C166.188 101.017 166.06 100.997 165.936 100.959C165.648 100.889 165.392 100.722 165.212 100.486C165.135 100.381 165.073 100.267 165.027 100.147C164.965 99.9733 164.932 99.791 164.929 99.6069L166.214 97.8079C166.214 97.8079 168.851 96.2043 169.648 97.2477C170.444 98.2911 167.751 101.108 166.317 101.02Z" fill="#D3766A"/>
<path d="M168.856 98.0341V98.0701C167.828 98.0392 167.027 98.6406 166.343 99.3345C166.431 99.2695 166.532 99.2244 166.639 99.2024C166.747 99.1803 166.857 99.1818 166.964 99.2067C167.07 99.2316 167.17 99.2794 167.257 99.3467C167.343 99.4141 167.413 99.4993 167.464 99.5966C167.464 99.5966 167.438 99.648 167.417 99.6326C167.287 99.5172 167.124 99.4452 166.951 99.4268C166.777 99.4084 166.603 99.4444 166.451 99.5298C166.197 99.6763 165.96 99.8486 165.742 100.044C165.67 100.1 165.546 99.9976 165.613 99.9256C166.091 98.7897 167.623 97.6075 168.856 98.0341Z" fill="#263238"/>
<path d="M166.353 100.691C166.296 100.773 166.208 100.829 166.11 100.846C166.012 100.864 165.91 100.841 165.829 100.784C165.747 100.727 165.691 100.639 165.674 100.541C165.656 100.443 165.679 100.341 165.736 100.26C165.793 100.178 165.881 100.122 165.979 100.105C166.077 100.088 166.179 100.11 166.26 100.167C166.342 100.224 166.398 100.312 166.415 100.41C166.433 100.508 166.41 100.61 166.353 100.691V100.691Z" fill="white"/>
<path d="M167.283 100.455C167.264 100.484 167.238 100.509 167.209 100.528C167.18 100.547 167.147 100.56 167.112 100.567C167.078 100.573 167.042 100.572 167.008 100.564C166.974 100.557 166.942 100.542 166.913 100.522C166.856 100.481 166.818 100.419 166.806 100.349C166.795 100.28 166.811 100.209 166.851 100.152C166.892 100.095 166.953 100.056 167.022 100.044C167.091 100.031 167.162 100.047 167.219 100.088C167.276 100.128 167.315 100.189 167.327 100.258C167.339 100.327 167.323 100.398 167.283 100.455V100.455Z" fill="white"/>
<path d="M51.8229 166.766C51.2678 167.953 54.6293 169.619 56.3821 169.377C57.8799 168.976 59.3497 168.476 60.7819 167.882C65.4439 166.103 71.9871 163.399 71.9871 163.399L74.9632 166.355L90.2804 178.778L104.857 162.454C104.857 162.454 97.7334 155.679 90.8869 149.439C89.8589 148.478 88.7898 147.543 87.8029 146.633L87.6127 146.463C82.9867 142.351 79.106 139.087 78.5252 139.241C76.937 139.637 52.378 165.574 51.8229 166.766Z" fill="#FFC4C0"/>
<path d="M51.8229 166.766C51.2678 167.959 54.6294 169.619 56.3821 169.377C57.8805 168.976 59.3504 168.474 60.7819 167.876C65.4439 166.108 71.9871 163.399 71.9871 163.399L74.9683 166.36L75.4823 166.771L91.0977 149.64L90.8766 149.434L87.7926 146.633C87.731 146.571 87.6641 146.515 87.6025 146.463C82.9765 142.351 79.0958 139.087 78.5098 139.236C76.937 139.632 52.378 165.574 51.8229 166.766Z" fill="#EBEBEB"/>
<path d="M51.3453 167.1C51.8902 165.877 76.5673 139.154 78.1556 138.733C78.7518 138.563 82.8587 141.935 87.6954 146.144L87.8496 146.278L72.1212 163.698L71.8334 163.42C71.8334 163.42 57.8115 169.424 56.0176 169.701C54.2237 169.979 50.7902 168.318 51.3453 167.1Z" fill="#1C9B88"/>
<path opacity="0.1" d="M51.3453 167.1C51.8902 165.877 76.5673 139.154 78.1556 138.733C78.7518 138.563 82.8587 141.935 87.6954 146.144L87.8496 146.278L72.1212 163.698L71.8334 163.42C71.8334 163.42 57.8115 169.424 56.0176 169.701C54.2237 169.979 50.7902 168.318 51.3453 167.1Z" fill="black"/>
<path d="M52.6609 167.753C56.9271 163.353 73.7349 145.194 77.6259 140.511C77.6567 140.475 77.6259 140.449 77.5951 140.511C73.2672 144.782 56.6084 163.076 52.5838 167.707C52.5016 167.784 52.5478 167.846 52.6609 167.753Z" fill="#263238"/>
<path d="M76.8188 171.109C76.8188 171.109 111.591 194.152 126.564 196.902C133.719 198.218 141.799 191.418 141.064 183.6C140.38 176.306 122.991 159.879 119.162 154.302C117.954 152.554 116.335 141.087 116.335 141.087L99.6969 143.867C99.6969 143.867 99.846 151.927 100.488 156.46C100.497 156.539 100.512 156.616 100.535 156.692L95.2662 152.066L76.8188 171.109Z" fill="#37474F"/>
<path d="M89.1183 163.97C91.8785 161.241 94.7723 158.645 97.5325 155.946C97.589 155.895 97.6764 155.946 97.625 156.018C94.9214 158.784 92.3154 161.631 89.5604 164.345C86.8053 167.059 83.9423 169.681 81.1256 172.343C81.0537 172.41 80.9354 172.312 81.0074 172.24C83.7162 169.49 86.3736 166.684 89.1183 163.97Z" fill="#263238"/>
<path d="M36.0024 155.993C35.1903 157.021 38.0584 159.411 39.842 159.591C41.3921 159.542 42.9373 159.392 44.468 159.144C49.4178 158.486 56.4083 157.355 56.4083 157.355L58.6236 160.922L70.2246 176.198L88.6104 163.985C88.6104 163.985 83.2339 155.761 78.0065 148.108C77.1995 146.936 76.4029 145.785 75.6216 144.664L75.4828 144.459C71.9259 139.39 68.8933 135.325 68.2868 135.34C66.678 135.356 36.8146 154.96 36.0024 155.993Z" fill="#FFC4C0"/>
<path d="M36.0018 155.993C35.1896 157.021 38.0578 159.416 39.8413 159.591C41.3914 159.542 42.9367 159.393 44.4673 159.144C49.412 158.486 56.4076 157.355 56.4076 157.355L58.6178 160.922L58.9467 161.354L78.2988 148.535L77.9956 148.098C77.1937 146.926 76.397 145.774 75.6209 144.654C75.5695 144.587 75.5232 144.515 75.477 144.448C71.9201 139.38 68.8875 135.32 68.281 135.33C66.6773 135.35 36.819 154.96 36.0018 155.993Z" fill="#EBEBEB"/>
<path d="M35.5552 156.049C36.3828 155.021 66.8167 135.073 68.4512 135.052C69.0732 135.052 72.2343 139.298 75.9094 144.561C75.9441 144.618 75.9819 144.673 76.0225 144.726L56.5316 157.797L56.3208 157.463C56.3208 157.463 41.2606 159.873 39.4513 159.709C37.6421 159.544 34.7226 157.098 35.5552 156.049Z" fill="#1C9B88"/>
<path d="M36.67 157C41.882 153.772 62.6013 140.244 67.51 136.651C67.5512 136.62 67.51 136.594 67.51 136.62C62.2724 139.704 41.6661 153.407 36.6341 156.918C36.5107 156.99 36.5621 157.072 36.67 157Z" fill="#263238"/>
<path d="M54.3112 159.174C56.5779 158.229 58.8447 156.301 59.4512 153.854C59.4512 153.762 59.3381 153.726 59.2867 153.793C57.7632 155.686 56.0399 157.409 54.1467 158.933C54.1272 158.959 54.1163 158.99 54.1155 159.022C54.1147 159.054 54.124 159.086 54.1422 159.113C54.1603 159.139 54.1864 159.16 54.2167 159.171C54.2471 159.182 54.2801 159.183 54.3112 159.174V159.174Z" fill="#263238"/>
<path d="M52.2809 159.246C54.5476 158.306 56.8144 156.378 57.4209 153.932C57.4209 153.834 57.3078 153.803 57.2564 153.865C55.7314 155.757 54.0082 157.48 52.1164 159.005C52.0969 159.03 52.086 159.062 52.0852 159.094C52.0844 159.126 52.0937 159.158 52.1119 159.185C52.13 159.211 52.1561 159.232 52.1865 159.243C52.2168 159.254 52.2498 159.255 52.2809 159.246V159.246Z" fill="#263238"/>
<path d="M50.2503 159.323C52.5119 158.378 54.7786 156.455 55.3903 154.004C55.416 153.911 55.2824 153.88 55.2258 153.942C53.701 155.834 51.9778 157.557 50.0858 159.082C50.0663 159.108 50.0554 159.139 50.0546 159.171C50.0538 159.203 50.0631 159.235 50.0813 159.262C50.0995 159.288 50.1256 159.309 50.1559 159.32C50.1862 159.331 50.2192 159.332 50.2503 159.323V159.323Z" fill="#263238"/>
<path d="M66.426 155.175C66.7652 156.753 65.1461 157.673 63.856 157.853C61.6155 158.126 59.3427 157.803 57.2665 156.918C57.2567 156.914 57.2479 156.909 57.2407 156.901C57.2335 156.893 57.2282 156.884 57.2252 156.874C57.2222 156.864 57.2216 156.854 57.2234 156.843C57.2252 156.833 57.2294 156.823 57.2357 156.815C57.2001 156.785 57.1721 156.746 57.1539 156.703C57.1357 156.66 57.1278 156.613 57.1307 156.566C57.1337 156.519 57.1475 156.474 57.1711 156.433C57.1947 156.392 57.2273 156.358 57.2665 156.332C59.1477 155.345 61.0393 154.06 63.1672 153.68C64.4111 153.438 66.133 153.664 66.426 155.175ZM60.4122 155.422C59.4716 155.885 58.5618 156.388 57.6109 156.82C58.8959 157 60.1809 157.231 61.471 157.283C62.0997 157.315 62.7299 157.307 63.3574 157.257C64.3186 157.159 67.2535 155.977 65.0022 154.523C63.784 153.7 61.5481 154.852 60.4328 155.402L60.4122 155.422Z" fill="#263238"/>
<path d="M113.282 141.601L90.3374 145.523C90.3374 145.523 86.1432 152.595 85.7114 157.16C85.2797 161.724 101.234 179.364 101.234 179.364L81.6457 151.655L59.3227 165.939C59.3227 165.939 86.6418 194.43 104.781 204.108C111.586 207.742 121.183 202.109 121.743 193.206C122.339 183.841 111.514 157.54 111.514 157.54L113.282 141.601Z" fill="#37474F"/>
<path d="M82.36 152.091C87.942 161.189 93.704 170.169 99.9542 178.819C100.823 180.022 101.692 181.22 102.576 182.417C103.46 183.615 104.344 184.957 105.341 186.129C105.392 186.185 105.295 186.262 105.248 186.2C104.457 185.09 103.547 184.067 102.709 182.993C101.871 181.919 101.075 180.886 100.273 179.817L99.2449 178.429L99.3888 178.799C99.6201 179.354 99.8463 179.909 100.062 180.475C100.504 181.631 100.813 182.859 101.342 183.98C101.378 184.047 101.265 184.093 101.239 184.026C100.797 182.865 100.155 181.785 99.6664 180.644C99.4333 180.089 99.2123 179.529 99.0033 178.963C98.791 178.464 98.6191 177.948 98.4893 177.421C97.487 176.054 96.4898 174.687 95.5081 173.309C92.4241 168.951 89.4789 164.496 86.6724 159.945C85.1047 157.411 83.5884 154.846 82.1287 152.235C82.067 152.091 82.2983 151.927 82.36 152.091Z" fill="#263238"/>
<path d="M72.5938 161.343C75.904 159.323 79.3015 157.458 82.6271 155.468C82.6888 155.432 82.7608 155.52 82.6939 155.561C79.43 157.617 76.2381 159.801 72.9279 161.811C69.6178 163.821 66.2459 165.712 62.8792 167.655C62.7919 167.707 62.6993 167.583 62.7867 167.527C66.0712 165.481 69.2991 163.363 72.5938 161.343Z" fill="#263238"/>
<path d="M90.1004 155.859C91.4311 155.986 92.7686 156.025 94.1045 155.977C95.2096 155.952 96.3455 155.926 97.3324 155.355C99.2548 154.245 100.252 152.009 100.879 149.974C100.879 149.928 100.977 149.974 100.961 149.999C100.391 152.225 99.9744 154.805 97.8053 156.085C96.7281 156.648 95.5068 156.873 94.2998 156.733C92.8724 156.616 91.4604 156.356 90.085 155.957C90.0749 155.952 90.0665 155.944 90.0613 155.934C90.056 155.924 90.0541 155.913 90.0558 155.902C90.0576 155.891 90.0629 155.881 90.0709 155.873C90.079 155.865 90.0893 155.86 90.1004 155.859V155.859Z" fill="#263238"/>
<path d="M87.438 156.846C87.8092 155.574 88.2713 154.33 88.8207 153.125C89.3655 151.881 89.9601 150.661 90.6043 149.465C91.3342 148.108 92.1463 146.787 92.9481 145.481C92.9543 145.472 92.9638 145.465 92.9748 145.462C92.9858 145.459 92.9975 145.46 93.0076 145.465C93.0178 145.47 93.0257 145.479 93.0299 145.49C93.0341 145.5 93.0343 145.512 93.0304 145.523C91.7865 147.753 90.6146 150.03 89.5557 152.359C89.0314 153.51 88.538 154.677 88.0754 155.859C87.5671 156.987 87.338 158.221 87.4072 159.457C87.5321 160.714 88.0277 161.906 88.831 162.88C88.831 162.88 88.831 162.906 88.831 162.88C88.1193 162.067 87.6198 161.091 87.3767 160.038C87.1337 158.985 87.1548 157.889 87.438 156.846V156.846Z" fill="#263238"/>
<path d="M112.922 144.731C112.865 146.18 112.675 150.575 112.567 152.025C112.521 152.688 112.475 153.366 112.367 154.024C112.274 154.579 112.094 155.227 111.524 155.468C110.866 155.746 110.547 155.201 110.496 154.625C110.445 153.974 110.428 153.32 110.444 152.667C110.444 151.922 110.604 145.101 110.604 145.08C110.604 145.06 110.604 145.014 110.547 144.988C110.539 144.98 110.528 144.976 110.516 144.976C110.505 144.976 110.494 144.98 110.485 144.988C110.367 145.091 109.971 151.12 109.971 151.819C109.971 152.518 109.92 153.217 109.899 153.916C109.83 154.438 109.896 154.969 110.09 155.458C110.201 155.689 110.385 155.878 110.613 155.996C110.841 156.114 111.101 156.154 111.354 156.111C111.354 156.162 111.323 156.209 111.313 156.26C111.282 156.409 111.267 156.563 111.246 156.712C111.226 156.861 111.205 157.021 111.195 157.175C111.19 157.248 111.19 157.322 111.195 157.396C111.195 157.478 111.236 157.55 111.241 157.632C111.246 157.715 111.436 157.802 111.472 157.668C111.508 157.535 111.534 157.524 111.56 157.447C111.584 157.365 111.601 157.281 111.611 157.195C111.611 157.046 111.637 156.902 111.647 156.753C111.657 156.604 111.647 156.455 111.647 156.311C111.644 156.224 111.635 156.136 111.621 156.049C111.903 155.963 112.155 155.801 112.351 155.582C112.673 155.168 112.867 154.67 112.912 154.147C112.999 153.531 113.035 152.904 113.076 152.282C113.169 150.74 113.374 146.247 113.194 144.71C113.191 144.674 113.175 144.641 113.147 144.617C113.12 144.593 113.084 144.582 113.048 144.584C113.012 144.587 112.978 144.604 112.954 144.632C112.931 144.659 112.919 144.695 112.922 144.731V144.731Z" fill="#263238"/>
<path d="M93.601 92.0922C95.7547 90.8124 100.905 89.882 104.395 95.0683C109.371 102.434 103.331 117.977 101.871 120.218C101.871 120.218 90.0493 121.565 81.5477 113.752C81.5477 113.752 89.3091 104.089 89.6998 98.3322C89.7834 97.0506 90.1836 95.8098 90.8644 94.7208C91.5453 93.6318 92.4855 92.7287 93.601 92.0922V92.0922Z" fill="#263238"/>
<path d="M87.3561 104.156C87.3047 104.238 87.2533 104.32 87.1967 104.403C86.4925 105.429 85.6959 106.389 84.8169 107.271C83.9958 108.136 83.0541 108.879 82.0207 109.476C82.0207 109.476 81.9642 109.45 82.0207 109.435C83.0467 108.776 83.9568 107.953 84.7141 106.998C85.4897 106.107 86.2106 105.17 86.8729 104.192C88.2268 102.205 89.3235 100.055 90.1368 97.7925C90.1368 97.7462 90.2345 97.7925 90.2191 97.7925C90.1317 98.1163 90.0391 98.4401 89.9363 98.7588C89.9431 98.7577 89.9501 98.7583 89.9566 98.7606C89.9631 98.7629 89.9689 98.7668 89.9735 98.7719C89.9781 98.777 89.9814 98.7832 89.9829 98.7899C89.9845 98.7966 89.9844 98.8036 89.9826 98.8102C89.3438 100.95 88.4824 103.018 87.4126 104.978C86.2822 106.871 84.8988 108.6 83.3006 110.118C82.4071 110.984 81.4613 111.794 80.4685 112.544C80.4685 112.544 80.4376 112.544 80.4685 112.519C83.2339 110.153 85.5649 107.323 87.3561 104.156V104.156Z" fill="#263238"/>
<path d="M102.621 93.6959C107.463 98.3682 107.592 105.461 106.219 111.434C105.817 113.277 105.235 115.076 104.482 116.805C104.482 116.812 104.479 116.819 104.475 116.824C104.47 116.828 104.463 116.831 104.456 116.831C104.45 116.831 104.443 116.828 104.438 116.824C104.433 116.819 104.431 116.812 104.431 116.805C105.536 113.734 106.191 110.519 106.374 107.26C106.533 104.207 106.399 100.979 105.279 98.0598C104.692 96.4565 103.762 95.0006 102.555 93.7936C102.519 93.7319 102.58 93.6548 102.621 93.6959Z" fill="#263238"/>
<path d="M103.557 145.363C103.311 145.687 82.1699 147.214 81.1521 146.951C81.1026 146.937 81.0545 146.918 81.0082 146.895C79.7489 146.345 73.8122 141.2 73.3856 140.768C72.5632 139.966 78.2943 126.134 83.0694 117.859C84.6628 115.099 87.243 112.719 87.9781 111.974C88.7131 111.228 101.856 110.565 104.21 111.573C105.238 111.999 107.741 114.431 107.808 114.878C107.896 115.531 103.799 145.029 103.557 145.363Z" fill="#455A64"/>
<path d="M103.557 145.363C103.31 145.687 82.1697 147.214 81.1519 146.951C81.1024 146.937 81.0543 146.918 81.008 146.895C82.8893 141.354 91.7249 115.356 91.9922 115.186C92.2595 115.017 104.806 114.744 107.818 114.883C107.895 115.531 103.799 145.029 103.557 145.363Z" fill="#263238"/>
<path d="M94.8914 112.832C94.6756 112.637 94.4545 109.748 94.8298 109.183C95.205 108.617 100.294 108.71 100.602 109.25C100.91 109.789 101.116 112.657 100.987 112.765C100.859 112.873 100.001 112.997 99.8824 112.817C99.7641 112.637 99.7076 110.247 99.6151 110.134C99.5226 110.021 95.9914 109.877 95.8732 110.062C95.755 110.247 96.1199 112.632 95.9811 112.75C95.8423 112.868 95.1022 113.027 94.8914 112.832Z" fill="#37474F"/>
<path d="M103.166 111.352C103.48 102.269 104.359 94.873 105.808 83.6523C106.569 77.8082 108.136 68.2581 108.507 65.7395C109.021 62.419 124.584 68.0884 124.004 70.3192C123.623 71.7738 121.691 80.5992 119.095 87.3634C115.759 96.0397 113.78 103.611 109.843 112.765C106.867 119.673 102.955 117.366 103.166 111.352Z" fill="#FFC4C0"/>
<path d="M122.159 74.8938C124.554 72.6219 130.697 62.9998 131.483 60.8359C132.269 58.6719 134.079 52.2778 132.48 51.5068C130.882 50.7358 130.208 52.5656 130.208 52.5656C130.208 52.5656 130.619 49.4816 128.867 49.1167C127.469 48.8237 126.374 51.3474 126.374 51.3474C126.374 51.3474 126.651 47.9448 124.863 47.806C123.238 47.6775 122.745 50.6947 122.745 50.6947C122.745 50.6947 122.688 47.8265 121.095 48.0013C119.183 48.2172 119.281 53.1824 118.232 55.5057C117.996 56.0197 109.777 67.1118 109.777 67.1118L122.159 74.8938Z" fill="#FFC4C0"/>
<path d="M122.631 50.5919C122.323 54.3184 122.087 55.8552 120.221 58.929C120.185 58.9855 120.267 59.0523 120.308 58.9958C122.41 56.1534 122.822 54.3698 122.806 50.5816C122.806 50.3965 122.642 50.4171 122.631 50.5919Z" fill="#263238"/>
<path d="M126.338 51.3475C126.076 55.1511 125.366 56.837 123.65 60.1985C123.624 60.2448 123.706 60.2911 123.732 60.2448C125.695 57.0888 126.698 55.1613 126.466 51.3269C126.456 51.1676 126.353 51.1881 126.338 51.3475Z" fill="#263238"/>
<path d="M130.121 52.7353C129.607 56.3949 128.98 58.343 126.893 61.3962C126.887 61.4032 126.883 61.4113 126.881 61.4199C126.879 61.4285 126.878 61.4375 126.879 61.4464C126.881 61.4552 126.884 61.4637 126.888 61.4714C126.892 61.4791 126.898 61.4858 126.906 61.4912C126.913 61.4966 126.921 61.5006 126.929 61.5029C126.938 61.5051 126.947 61.5057 126.956 61.5045C126.965 61.5033 126.973 61.5004 126.981 61.4959C126.988 61.4914 126.995 61.4855 127.001 61.4784C129.432 58.5743 130.218 56.1482 130.229 52.7404C130.229 52.5296 130.162 52.504 130.121 52.7353Z" fill="#263238"/>
<path d="M108.142 69.0753C108.142 69.0753 107.412 63.961 111.107 60.4504C112.603 59.0317 112.922 52.7404 114.597 52.1801C116.484 51.5479 117.121 56.8575 115.949 60.3322C115.949 60.3322 120.858 63.8377 119.892 67.2352C119.681 67.9702 117.208 71.0388 116.35 71.2033L108.142 69.0753Z" fill="#FFC4C0"/>
<path d="M115.955 60.7331C117.913 62.0284 119.892 64.4133 119.836 66.752C119.839 66.7635 119.846 66.7736 119.856 66.7807C119.866 66.7879 119.878 66.7917 119.89 66.7917C119.902 66.7917 119.913 66.7879 119.923 66.7807C119.933 66.7736 119.94 66.7635 119.944 66.752C120.344 64.2489 118.083 61.463 116.263 60.4144C115.914 60.2294 115.451 60.3939 115.955 60.7331Z" fill="#263238"/>
<path opacity="0.1" d="M103.151 111.83L112.434 70.1958L112.686 68.9571L113.544 65.0867L114.567 60.5995L116.15 53.5011C115.821 52.5039 115.297 51.9283 114.608 52.1596C112.933 52.725 112.614 59.0112 111.118 60.4298C108.24 63.1643 108.034 66.8754 108.106 68.3763C107.479 72.3649 106.41 79.1086 105.819 83.6318C104.37 94.8524 103.491 102.249 103.172 111.331C103.156 111.511 103.151 111.67 103.151 111.83Z" fill="black"/>
<path d="M114.804 103.369L103.182 96.4458C103.182 96.4458 102.365 111.306 103.357 115.741C104.472 120.737 106.785 119.072 109.422 114.986C112.059 110.899 114.804 103.369 114.804 103.369Z" fill="#1C9B88"/>
<path d="M108.09 106.859C108.394 106.191 108.913 104.865 109.905 105.215C110.676 105.482 110.686 106.474 110.624 107.137C110.522 108.204 110.111 109.219 109.442 110.057C109.17 110.411 108.723 110.858 108.306 110.833C107.895 110.884 107.612 110.56 107.51 110.051C107.358 108.953 107.562 107.834 108.09 106.859ZM104.883 104.336C105.356 104.289 106.019 105.189 106.029 106.592C106.029 108.134 105.454 108.936 105.042 108.89C104.23 108.792 103.978 107.528 103.973 106.546C103.948 105.801 104.313 104.408 104.883 104.351V104.336Z" fill="#263238"/>
<path d="M113.144 105.23C111.545 104.546 107.032 101.827 106.287 101.385C105.891 101.154 104.354 100.152 103.958 99.9256C103.907 99.8947 103.958 99.8228 104.01 99.8485C104.765 100.291 105.552 100.65 106.333 101.082C107.114 101.514 111.781 104.115 113.174 105.194C113.175 105.199 113.175 105.203 113.174 105.207C113.172 105.212 113.17 105.216 113.167 105.219C113.164 105.223 113.161 105.225 113.157 105.227C113.153 105.229 113.148 105.23 113.144 105.23Z" fill="#263238"/>
<path opacity="0.1" d="M102.92 111.182C102.94 112.711 103.086 114.236 103.357 115.741C104.472 120.732 106.78 119.072 109.422 114.991C109.787 114.426 110.147 113.793 110.512 113.13L102.92 111.182Z" fill="black"/>
<path d="M85.3923 156.471C85.4951 156.543 119.635 152.811 119.871 152.359C119.995 152.133 113.256 118.378 103.136 110.267C101.249 108.756 96.397 109.661 94.562 111.912C89.1239 118.599 85.0273 156.203 85.3923 156.471Z" fill="#EBEBEB"/>
<path d="M102.817 109.943C106.127 115.15 111.36 130.401 112.131 136.589C112.475 139.334 112.537 160.788 112.537 160.788L121.424 155.463C121.424 155.463 117.183 135.931 114.778 129.301C112.372 122.67 106.179 113.13 104.904 111.696C103.531 110.123 102.817 109.943 102.817 109.943Z" fill="#1C9B88"/>
<path d="M96.3507 110.206C96.3507 110.206 94.6802 110.982 93.3027 113.367C91.9251 115.752 87.2632 135.273 85.3665 138.039C83.4698 140.804 76.5462 138.727 76.5462 138.727C76.5631 140.115 76.3901 141.499 76.0322 142.839C75.4823 144.438 85.6697 161.343 86.2711 161.343C86.8725 161.343 96.952 149.059 97.9029 143.107C98.8538 137.155 97.2656 117.982 97.0806 115.597C96.8955 113.212 96.3507 110.206 96.3507 110.206Z" fill="#1C9B88"/>
<path d="M112.896 142.485C113.399 143.194 113.738 144.007 113.888 144.865C113.96 145.337 113.97 146.062 113.374 146.129C113.192 146.125 113.014 146.08 112.852 145.997C112.69 145.914 112.548 145.796 112.439 145.651C112.439 144.279 112.398 142.958 112.372 141.77C112.584 141.978 112.762 142.22 112.896 142.485V142.485ZM116.16 144.798C116.253 144.181 116.587 143.482 117.322 143.77C118.057 144.058 118.38 145.199 118.468 145.959C118.558 146.58 118.539 147.211 118.411 147.825C118.369 148.161 118.217 148.473 117.98 148.714C117.291 149.285 116.91 148.262 116.695 147.758C116.243 146.841 116.058 145.815 116.16 144.798V144.798ZM85.9573 157.298C85.9194 156.274 86.1687 155.259 86.6769 154.368C87.0213 153.854 87.6073 153.34 88.1573 153.916C88.7072 154.492 88.5428 155.653 88.3115 156.394C88.1387 156.993 87.864 157.558 87.4993 158.064C87.3229 158.355 87.0555 158.579 86.7386 158.701C85.9111 158.938 85.9573 157.848 85.9573 157.298ZM113.199 138.429C113.667 138.224 114.058 138.512 114.346 138.943C114.705 139.458 114.957 140.04 115.086 140.655C115.153 141.02 115.271 141.683 114.916 141.95C114.561 142.218 114.109 141.909 113.888 141.632C113.456 141.133 112.202 138.902 113.23 138.429H113.199ZM118.437 151.089C118.725 150.467 119.193 149.27 120.056 149.398C120.323 150.549 120.57 151.588 120.75 152.482C120.546 153.144 120.222 153.762 119.794 154.307C119.516 154.651 119.069 155.103 118.653 155.083C118.237 155.062 117.959 154.811 117.856 154.302C117.713 153.193 117.928 152.068 118.468 151.089H118.437ZM115.23 148.565C115.703 148.519 116.366 149.424 116.376 150.827C116.376 152.369 115.8 153.171 115.389 153.125C114.577 153.022 114.325 151.762 114.32 150.781C114.34 150.035 114.69 148.627 115.255 148.565H115.23ZM114.541 132.724C115.055 132.868 115.25 133.402 115.291 133.968C115.34 134.389 115.323 134.816 115.24 135.232C115.178 135.505 115.019 135.849 114.68 135.746C114.34 135.643 114.135 135.083 114.058 134.775C113.991 134.384 113.58 132.431 114.572 132.724H114.541ZM84.3331 151.613C84.8471 151.757 85.0373 152.292 85.0784 152.862C85.1271 153.284 85.1098 153.711 85.027 154.127C84.9705 154.394 84.8111 154.744 84.4719 154.641C84.1326 154.538 83.9219 153.983 83.8499 153.675C83.7831 153.274 83.3873 151.32 84.3639 151.613H84.3331ZM90.2081 123.066C90.6407 123.672 90.9066 124.381 90.9791 125.122C91.1539 125.754 91.1436 126.355 90.5576 126.412C90.1567 126.453 89.7507 125.965 89.4782 125.62C89.7558 124.757 89.9974 123.904 90.239 123.066H90.2081ZM87.34 132.832C87.7069 133.133 88.035 133.478 88.3166 133.86C88.6044 134.24 88.9385 134.888 88.4194 135.222C87.9003 135.556 87.1807 135.186 86.6667 134.908C86.9134 134.281 87.1395 133.587 87.3708 132.847L87.34 132.832ZM90.866 131.29C91.7296 131.218 92.4697 132.076 92.922 132.709C93.2831 133.219 93.5543 133.787 93.7239 134.389C93.8404 134.707 93.8494 135.053 93.7496 135.376C93.4052 136.193 92.5931 135.469 92.1665 135.119C91.3427 134.509 90.7055 133.681 90.3263 132.729C90.1362 132.148 90.1053 131.377 90.8969 131.305L90.866 131.29ZM96.1088 134.95C96.9158 134.836 97.3784 135.705 97.6508 136.332C98.0432 137.325 98.1466 138.408 97.949 139.457C97.8616 139.899 97.6765 140.485 97.2962 140.681C96.9158 140.876 96.556 140.753 96.2271 140.347C95.589 139.446 95.2541 138.366 95.271 137.263C95.2505 136.528 95.1014 135.129 96.1397 134.965L96.1088 134.95ZM91.2464 136.492C91.6422 136.229 92.6445 136.723 93.3024 137.972C94.0117 139.308 93.8729 140.311 93.4823 140.454C92.7113 140.747 91.9403 139.74 91.452 138.877C91.1282 138.213 90.7941 136.815 91.2772 136.502L91.2464 136.492ZM88.3166 142.3C88.9488 142.387 89.2932 142.994 89.4423 143.672C89.5777 144.174 89.6315 144.695 89.6016 145.214C89.6016 145.548 89.4423 145.99 89.0156 145.934C88.589 145.877 88.2395 145.23 88.0904 144.87C87.9311 144.412 87.0933 142.125 88.3474 142.325L88.3166 142.3Z" fill="#263238"/>
<path d="M94.6285 110.113C89.4474 101.966 85.2428 96.1117 77.8721 86.6284C74.0325 81.6889 69.2163 75.7881 67.515 73.6859C65.2739 70.9103 54.0687 84.4799 55.8009 86.2223C56.9317 87.348 60.6479 90.982 67.1089 96.7388C74.49 103.292 80.7248 108.741 89.2623 114.996C95.7233 119.709 98.0517 115.5 94.6285 110.113Z" fill="#FFC4C0"/>
<path d="M59.4143 88.6947C56.0013 87.9031 45.1971 82.4085 43.3158 80.8511C41.4346 79.2936 36.3306 74.4209 37.374 72.8532C38.4174 71.2855 40.0262 72.5962 40.0262 72.5962C40.0262 72.5962 37.9702 70.0262 39.394 68.7207C40.5197 67.6927 42.8789 69.4197 42.8789 69.4197C42.8789 69.4197 40.7921 66.4539 42.3649 65.3642C43.7836 64.3671 45.8601 66.8651 45.8601 66.8651C45.8601 66.8651 44.3695 64.2077 45.9167 63.5138C47.7722 62.6554 50.3576 67.2815 52.5473 68.8235C53.0613 69.1781 66.5332 74.8887 66.5332 74.8887L59.4143 88.6947Z" fill="#FFC4C0"/>
<path d="M45.8965 66.7109C48.1838 69.9543 49.2221 71.2341 52.5785 73.0383C52.6453 73.0742 52.6042 73.1822 52.5322 73.1513C49.0782 71.6813 47.7366 70.2524 45.7166 66.7932C45.6292 66.6287 45.7886 66.5619 45.8965 66.7109Z" fill="#263238"/>
<path d="M42.9153 69.4094C45.2026 72.7453 46.7548 73.9069 50.1421 76.0554C50.1884 76.0863 50.1421 76.1736 50.0907 76.1428C46.5955 74.313 44.6371 73.0896 42.7919 69.4608C42.7045 69.2963 42.7816 69.2603 42.9153 69.4094Z" fill="#263238"/>
<path d="M40.2122 72.7041C42.6588 75.7882 44.2779 77.2222 47.8297 78.8722C47.8456 78.8802 47.8579 78.8939 47.8643 78.9105C47.8707 78.9271 47.8707 78.9456 47.8643 78.9622C47.8579 78.9788 47.8456 78.9925 47.8297 79.0006C47.8138 79.0086 47.7955 79.0105 47.7783 79.0058C43.9901 77.6591 41.9598 75.8652 40.1248 72.7761C39.986 72.5808 40.0426 72.514 40.2122 72.7041Z" fill="#263238"/>
<path d="M69.1084 75.819C69.1084 75.819 67.0164 70.7458 61.7479 69.5276C59.6148 69.0136 55.9397 63.4522 54.0996 63.8377C52.0436 64.2746 54.3052 69.4917 57.2556 72.0257C57.2556 72.0257 54.6496 77.875 57.3635 80.4604C57.9546 81.0207 61.8661 82.5164 62.7399 82.1875L69.1084 75.819Z" fill="#FFC4C0"/>
<path d="M57.462 72.3906C56.3672 74.6316 55.8481 77.8801 57.1588 79.9927C57.1632 79.9987 57.1663 80.0056 57.168 80.0129C57.1698 80.0202 57.17 80.0278 57.1688 80.0352C57.1676 80.0426 57.165 80.0497 57.1611 80.056C57.1571 80.0624 57.152 80.068 57.1459 80.0723C57.1398 80.0767 57.133 80.0799 57.1257 80.0816C57.1184 80.0833 57.1108 80.0836 57.1034 80.0824C57.096 80.0812 57.0889 80.0786 57.0825 80.0746C57.0762 80.0707 57.0706 80.0656 57.0662 80.0595C55.3495 78.0035 55.92 74.2256 57.02 72.2827C57.2307 71.9074 57.7447 71.8149 57.462 72.3906Z" fill="#263238"/>
<path d="M80.5552 109.548L87.1344 97.7257C87.1344 97.7257 95.2967 110.17 96.6639 114.508C98.2059 119.391 95.3738 119.108 91.0356 116.898C86.6975 114.688 80.5552 109.548 80.5552 109.548Z" fill="#1C9B88"/>
<path d="M87.7566 108.006C88.2244 107.795 88.615 108.083 88.9029 108.52C89.2572 109.036 89.5085 109.615 89.643 110.226C89.7098 110.596 89.828 111.254 89.4682 111.527C89.1084 111.799 88.6664 111.48 88.4402 111.208C87.9828 110.704 86.7286 108.473 87.7566 108.006ZM89.4477 101.355C90.2187 102.568 91.0976 103.996 91.9766 105.467C91.9443 105.637 91.8781 105.8 91.7818 105.945C91.6856 106.09 91.5613 106.214 91.4163 106.309C91.0771 106.541 90.6762 106.387 90.3472 105.981C89.5328 104.585 89.2157 102.954 89.4477 101.355ZM85.3819 102.12C85.7829 101.863 86.78 102.357 87.4379 103.596C88.1473 104.937 88.0085 105.939 87.6179 106.083C86.852 106.371 86.0501 105.369 85.5875 104.505C85.2329 103.827 84.8988 102.439 85.3819 102.12Z" fill="#263238"/>
<path d="M82.9254 110.324C83.9534 108.931 86.5234 104.315 86.9295 103.554C87.1556 103.154 87.9832 101.498 88.2093 101.123C88.2402 101.072 88.1528 101.036 88.1271 101.087C87.6902 101.843 87.1762 102.557 86.7341 103.318C86.2921 104.079 83.5473 108.674 82.8688 110.288C82.874 110.324 82.9048 110.355 82.9254 110.324Z" fill="#263238"/>
<path d="M92.521 118.291C92.3514 118.121 92.1766 117.957 92.007 117.777C92.9939 118.373 94.0013 118.923 95.0345 119.437C95.0345 119.437 95.0756 119.411 95.0345 119.396C93.9602 118.651 92.8808 117.931 91.7706 117.247C91.2566 116.924 90.4701 116.461 89.8893 116.081C89.8225 116.034 89.7454 116.137 89.8122 116.178C90.3725 116.538 90.8968 117.114 91.3851 117.417C91.4987 117.553 91.6205 117.682 91.75 117.803C91.9556 118.003 92.1715 118.198 92.3925 118.378C92.8397 118.743 93.3023 119.093 93.7546 119.447C93.3434 119.082 92.9271 118.681 92.521 118.291Z" fill="#263238"/>
<path d="M102.38 109.311C106.394 108.874 114.474 120.105 116.52 125.081C117.548 127.604 116.977 135.679 116.833 135.772C116.689 135.864 116.263 133.988 116.057 133.284C115.852 132.58 114.274 127.317 113.251 124.849C111.462 120.532 102.164 110.103 102.015 109.943C101.866 109.784 102.01 109.352 102.38 109.311Z" fill="#455A64"/>
<path d="M102.822 116.266C101.372 116.692 97.6459 114.724 95.888 112.668C95.7698 112.529 95.6465 110.822 95.374 108.756C95.2198 107.497 95.0142 106.104 94.7367 104.85L103.053 105.024C102.949 106.696 103.051 108.374 103.356 110.021C103.395 110.197 103.452 110.37 103.526 110.535C103.528 110.562 103.528 110.589 103.526 110.617C103.948 111.583 105.089 115.597 102.822 116.266Z" fill="#FFC4C0"/>
<path d="M103.541 110.555C103.556 110.581 103.568 110.609 103.577 110.637C103.314 110.733 103.045 110.806 102.77 110.858C98.2624 111.748 95.9597 106.52 95.3583 104.886L103.068 105.045C102.964 106.72 103.064 108.401 103.366 110.051C103.415 110.223 103.473 110.391 103.541 110.555V110.555Z" fill="#263238"/>
<path d="M90.584 95.5514C90.6149 98.5429 94.5521 105.981 97.0501 107.127C100.674 108.787 105.367 107.574 106.461 103.529C107.525 99.5812 102.221 89.9797 99.543 89.0648C95.6264 87.677 90.584 91.1053 90.584 95.5514Z" fill="#FFC4C0"/>
<path d="M97.3689 96.8262C97.5693 96.6565 97.7184 96.4715 97.8829 96.3122C98.0947 96.148 98.2464 95.9186 98.3146 95.6594C98.3202 95.5745 98.2974 95.4901 98.25 95.4194C98.2026 95.3488 98.1331 95.2958 98.0525 95.2687C97.8848 95.2383 97.7121 95.2532 97.5521 95.312C97.3921 95.3707 97.2508 95.4711 97.1427 95.6029C96.8821 95.8369 96.7173 96.1592 96.6801 96.5075C96.677 96.5886 96.698 96.6687 96.7404 96.7379C96.7828 96.8071 96.8447 96.8622 96.9183 96.8962C96.9919 96.9303 97.074 96.9418 97.1542 96.9294C97.2344 96.9169 97.309 96.881 97.3689 96.8262V96.8262Z" fill="#263238"/>
<path d="M102.38 94.359C102.138 94.4239 101.893 94.4737 101.645 94.508C101.392 94.5954 101.117 94.5954 100.864 94.508C100.79 94.4665 100.731 94.4017 100.698 94.3236C100.664 94.2455 100.658 94.1586 100.679 94.0763C100.744 93.9188 100.851 93.7817 100.987 93.6795C101.124 93.5773 101.285 93.5138 101.455 93.4955C101.798 93.3983 102.165 93.435 102.483 93.5982C102.556 93.6382 102.615 93.6993 102.652 93.7735C102.69 93.8477 102.704 93.9315 102.693 94.0139C102.681 94.0963 102.646 94.1734 102.59 94.235C102.534 94.2966 102.461 94.3398 102.38 94.359V94.359Z" fill="#263238"/>
<path d="M100.633 102.562C100.806 102.658 101.008 102.691 101.203 102.655C101.391 102.557 101.557 102.422 101.692 102.259C101.692 102.259 101.728 102.259 101.728 102.259C101.701 102.394 101.64 102.52 101.55 102.624C101.46 102.728 101.344 102.806 101.214 102.85C101.097 102.873 100.975 102.862 100.865 102.817C100.754 102.772 100.659 102.696 100.592 102.598C100.571 102.588 100.607 102.557 100.633 102.562Z" fill="#263238"/>
<path d="M102.262 100.619C102.179 101 102.002 101.353 101.748 101.647C101.603 101.804 101.412 101.912 101.203 101.956C100.745 102.048 100.55 101.678 100.468 101.324C100.427 101.135 100.408 100.941 100.411 100.748C101.026 100.903 101.674 100.858 102.262 100.619V100.619Z" fill="#263238"/>
<path d="M101.753 101.663C101.608 101.82 101.417 101.928 101.208 101.971C100.751 102.064 100.555 101.694 100.473 101.339C100.692 101.241 100.937 101.22 101.169 101.278C101.402 101.337 101.607 101.473 101.753 101.663V101.663Z" fill="#FF9BBC"/>
<path d="M98.0572 98.0598C98.0165 97.9117 98.0165 97.7555 98.0572 97.6075C98.0856 97.5286 98.1299 97.4564 98.1874 97.3954C98.2448 97.3344 98.3142 97.2859 98.3912 97.2528C98.4743 97.2183 98.5644 97.2045 98.6539 97.2126C98.7435 97.2206 98.8297 97.2503 98.9052 97.299C99.0316 97.3796 99.1373 97.4888 99.2137 97.6177C99.2602 97.6946 99.2998 97.7754 99.3319 97.8593C99.4073 98.0306 99.4407 98.2174 99.4295 98.4042C99.3859 98.276 99.3273 98.1535 99.2548 98.0392C99.1935 97.9338 99.123 97.834 99.044 97.7411C98.8847 97.5509 98.6842 97.4224 98.53 97.5047C98.3758 97.5869 98.2679 97.7822 98.2884 98.0187C98.3122 98.2749 98.3622 98.5281 98.4375 98.7742C98.2562 98.5693 98.1259 98.3246 98.0572 98.0598Z" fill="#263238"/>
<path d="M102.971 95.4949C102.874 95.3774 102.749 95.2871 102.606 95.2328C102.527 95.205 102.442 95.1943 102.358 95.2013C102.274 95.2084 102.192 95.2332 102.118 95.2739C102.044 95.3179 101.981 95.3783 101.934 95.4505C101.886 95.5227 101.856 95.6047 101.846 95.6902C101.831 95.8404 101.853 95.9918 101.907 96.1323C101.939 96.2162 101.979 96.297 102.026 96.3739C102.115 96.5382 102.242 96.679 102.396 96.7851C102.26 96.5673 102.164 96.3271 102.113 96.0757C102.061 95.8342 102.082 95.5926 102.252 95.5103C102.347 95.4665 102.455 95.4559 102.557 95.4801C102.66 95.5043 102.751 95.562 102.817 95.644C103.008 95.821 103.18 96.0174 103.331 96.2299C103.272 95.9597 103.148 95.7077 102.971 95.4949V95.4949Z" fill="#263238"/>
<path d="M93.6217 101.966C93.9558 101.452 93.7759 98.6611 93.7759 98.6611C93.7759 98.6611 98.2065 95.3202 97.5486 90.6582C97.5486 90.6582 100.669 92.6525 102.92 92.6576C102.92 92.6576 101.563 88.0316 97.1169 88.5765C97.1169 88.5765 92.4909 88.119 90.0185 93.0842C87.5462 98.0495 92.3675 102.418 92.3675 102.418L93.6217 101.966Z" fill="#263238"/>
<path d="M97.1833 89.8409C97.5481 90.5494 97.715 91.3431 97.6665 92.1385C97.6526 92.9251 97.5262 93.7058 97.2913 94.4566C97.0725 95.2321 96.725 95.9653 96.2633 96.6257C95.6933 97.3422 95.0194 97.9694 94.2638 98.4864C94.2638 98.4864 94.2638 98.5429 94.2947 98.5275C95.0942 98.0126 95.8219 97.3938 96.4586 96.6874C96.9699 96.0261 97.3677 95.2844 97.6357 94.4926C97.9413 93.7075 98.0796 92.8671 98.0417 92.0254C97.9633 91.2309 97.6972 90.4663 97.2656 89.7946C97.2399 89.7432 97.1525 89.7895 97.1833 89.8409Z" fill="#263238"/>
<path d="M98.0215 87.6307C97.0449 87.2349 94.7679 86.5307 92.9329 86.8083C91.0979 87.0859 88.8209 88.4325 88.0293 88.8643C87.3817 89.2241 85.1047 89.8923 83.5113 91.203C83.0577 91.6448 82.7315 92.2006 82.5669 92.812C82.4023 93.4234 82.4054 94.0678 82.5758 94.6776C83.0538 95.901 85.521 94.6776 85.7317 95.1402C85.8705 95.4538 85.7317 97.1551 86.6621 97.7668C87.5924 98.3784 87.541 98.2808 88.0704 98.5943C89.3606 99.4013 89.6124 93.1665 91.5605 91.1362C93.5086 89.1059 98.0215 87.6307 98.0215 87.6307Z" fill="#1C9B88"/>
<path opacity="0.1" d="M97.8516 87.7541C97.8516 87.7541 93.498 89.111 91.5602 91.1413C89.6224 93.1716 89.6687 99.1083 88.3734 98.3014C87.808 97.9467 87.5202 97.4018 87.2632 96.4818C87.479 94.7393 88.101 92.0254 89.4939 90.1185C90.7995 88.3297 93.0919 87.3788 95.5951 87.0345C96.3657 87.2119 97.1205 87.4526 97.8516 87.7541Z" fill="black"/>
<path d="M88.7845 101.175C89.6994 99.1186 90.3779 95.9472 91.997 93.4646C93.6161 90.982 98.5351 89.4246 99.229 89.4451C100.92 89.4965 101.311 90.2881 101.573 90.1287C101.835 89.9694 100.098 88.1087 99.6145 87.8363C98.8792 87.4932 98.0769 87.3176 97.2655 87.3223C96.5356 87.3583 92.033 87.9391 90.4499 89.8923C88.8667 91.8455 86.6977 97.3299 87.1603 98.6971C87.2733 99.0261 87.7205 99.2111 87.8747 99.6943C88.0752 100.306 88.2294 101.015 88.4247 101.442C88.5892 101.812 88.728 101.298 88.7845 101.175Z" fill="#1C9B88"/>
<path d="M92.3516 92.3698C91.9585 92.145 91.5854 91.887 91.2362 91.5988C90.8778 91.3132 90.5535 90.9872 90.2699 90.6273C90.2699 90.6273 90.2082 90.6273 90.2236 90.6273C90.4529 91.0453 90.7479 91.4236 91.0974 91.7479C91.4549 92.0553 91.8662 92.294 92.3104 92.452C92.367 92.4675 92.3978 92.3955 92.3516 92.3698Z" fill="#263238"/>
<path d="M88.7638 100.239C88.7091 100.127 88.6473 100.019 88.5788 99.9153C88.5152 99.7914 88.4619 99.6625 88.4194 99.5298C88.3818 99.2694 88.3145 99.0142 88.219 98.7691C88.1112 98.5831 87.9818 98.4106 87.8335 98.2551C87.6497 98.085 87.5314 97.8558 87.4994 97.6074C87.4994 97.5715 87.4428 97.5715 87.448 97.6074C87.5311 98.0515 87.7257 98.4671 88.0134 98.8154C88.1161 99.0803 88.1952 99.3538 88.2498 99.6326C88.3231 99.8893 88.4761 100.116 88.6867 100.28C88.7278 100.311 88.7792 100.275 88.7638 100.239Z" fill="#263238"/>
<path d="M89.263 98.5121C89.1037 98.3322 88.9392 98.178 88.8004 97.9981C88.6676 97.8119 88.5491 97.6161 88.4457 97.4121C88.3378 97.2168 88.2504 97.0112 88.1476 96.8107C88.0448 96.6103 87.8752 96.3482 87.7673 96.1066C87.7673 96.0757 87.7107 96.1066 87.7261 96.1374C87.8341 96.3841 87.906 96.6514 88.0088 96.9135C88.1116 97.1757 88.2144 97.3453 88.3275 97.5509C88.4411 97.7471 88.5718 97.9329 88.7182 98.106C88.8589 98.2842 89.0336 98.4327 89.2322 98.5429C89.2322 98.5429 89.2733 98.5224 89.263 98.5121Z" fill="#263238"/>
<path d="M90.373 95.4487C90.2063 95.3377 90.0602 95.1985 89.9412 95.0375C89.8024 94.8627 89.6636 94.6879 89.53 94.5235L89.1445 94.0095C89.0035 93.8421 88.9017 93.6455 88.8464 93.4338C88.844 93.4283 88.84 93.4236 88.835 93.4203C88.83 93.417 88.8241 93.4153 88.8181 93.4153C88.8121 93.4153 88.8062 93.417 88.8012 93.4203C88.7962 93.4236 88.7922 93.4283 88.7898 93.4338C88.8182 93.6483 88.8862 93.8557 88.9903 94.0454C89.0992 94.2583 89.2265 94.4612 89.3707 94.652C89.5104 94.8423 89.6633 95.0226 89.8281 95.1917C89.9615 95.3527 90.1408 95.4693 90.3421 95.5257C90.3884 95.5206 90.4141 95.4692 90.373 95.4487Z" fill="#263238"/>
<path d="M90.774 93.5571C90.6198 93.4184 90.4708 93.2744 90.332 93.1254C90.1932 92.9763 90.0596 92.817 89.9311 92.6576C89.8026 92.4983 89.6586 92.3235 89.5353 92.1436C89.5372 92.1397 89.538 92.1354 89.5378 92.131C89.5376 92.1267 89.5362 92.1225 89.5339 92.1188C89.5316 92.1151 89.5284 92.1121 89.5246 92.1099C89.5208 92.1078 89.5165 92.1067 89.5121 92.1067C89.5078 92.1067 89.5035 92.1078 89.4997 92.1099C89.4959 92.1121 89.4927 92.1151 89.4904 92.1188C89.488 92.1225 89.4867 92.1267 89.4865 92.131C89.4862 92.1354 89.4871 92.1397 89.489 92.1436C89.5765 92.34 89.6797 92.5291 89.7974 92.709C90.0396 93.0553 90.3226 93.3711 90.6404 93.6497C90.7867 93.798 90.9615 93.9151 91.1544 93.994C91.1852 93.994 91.2161 93.994 91.1955 93.9426C91.0686 93.8001 90.9273 93.6709 90.774 93.5571Z" fill="#263238"/>
<path d="M93.5391 91.4395C93.3774 91.2473 93.2059 91.0637 93.0251 90.8895C92.8433 90.7071 92.6511 90.5355 92.4494 90.3755C92.0646 90.0649 91.6455 89.7993 91.2004 89.5839C91.1747 89.5839 91.1438 89.5839 91.1644 89.625C91.9354 90.2418 92.7064 90.8278 93.4877 91.4549L93.5391 91.4395Z" fill="#263238"/>
<path d="M94.4596 90.0517C94.2963 89.8601 94.1118 89.6877 93.9097 89.5377C93.4772 89.2512 93.0154 89.0117 92.5321 88.8232C92.5013 88.8232 92.4756 88.8232 92.5013 88.8695C92.9228 89.1316 93.3443 89.3835 93.7452 89.6662C93.9462 89.8053 94.1401 89.9546 94.326 90.1133C94.511 90.2778 94.6498 90.4731 94.84 90.6273H94.876C94.7744 90.4111 94.6332 90.2159 94.4596 90.0517V90.0517Z" fill="#263238"/>
<path d="M95.7597 89.3835C95.6076 89.1939 95.4352 89.0216 95.2457 88.8695C94.894 88.5896 94.4979 88.3707 94.0738 88.2218C94.0429 88.2218 94.0275 88.2578 94.0738 88.2732C94.4648 88.4928 94.8363 88.7456 95.184 89.0288C95.3588 89.1727 95.5284 89.3269 95.698 89.476C95.8676 89.625 96.0115 89.8152 96.212 89.9437C96.212 89.9437 96.2428 89.9437 96.2377 89.918C96.0941 89.7264 95.9341 89.5475 95.7597 89.3835V89.3835Z" fill="#263238"/>
<path d="M96.6898 88.5765C96.515 88.4497 96.3437 88.3263 96.1758 88.2064C96.0056 88.0799 95.8165 87.981 95.6155 87.9134C95.5847 87.9134 95.5744 87.9443 95.6155 87.9597C95.9496 88.2115 96.2734 88.4737 96.6024 88.7204C96.8853 88.9787 97.1419 89.2645 97.3683 89.5736C97.3683 89.5736 97.3991 89.5736 97.394 89.5736C97.2656 89.1776 97.02 88.8299 96.6898 88.5765V88.5765Z" fill="#263238"/>
<path d="M97.8674 88.2886C97.5533 88.0119 97.1885 87.7989 96.7931 87.6615C96.7674 87.6615 96.7468 87.6975 96.7931 87.7078C97.1526 87.8898 97.4834 88.1236 97.7748 88.4017C98.0695 88.6791 98.3331 88.9876 98.5613 89.3218C98.5613 89.3218 98.6024 89.3218 98.5921 89.3218C98.4359 88.9248 98.1875 88.5706 97.8674 88.2886V88.2886Z" fill="#263238"/>
<path d="M99.4448 88.9517C99.4018 88.87 99.3537 88.791 99.3009 88.7153C99.1949 88.5619 99.0726 88.4206 98.936 88.2938C98.6544 88.0421 98.3479 87.8199 98.0211 87.6307C97.9902 87.6307 97.9645 87.6307 97.9902 87.677C98.3043 87.8696 98.5942 88.0991 98.8537 88.3606C98.9799 88.4892 99.0967 88.6266 99.2033 88.7718C99.2577 88.8422 99.3075 88.916 99.3523 88.9928C99.3906 89.0712 99.4371 89.1453 99.4911 89.2138H99.5322C99.5212 89.1214 99.4915 89.0322 99.4448 88.9517V88.9517Z" fill="#263238"/>
<path d="M100.401 89.0082C100.304 88.89 100.206 88.7718 100.098 88.6639C99.9923 88.5531 99.879 88.4501 99.7587 88.3555C99.6405 88.2578 99.512 88.1653 99.3938 88.0625C99.3883 88.0584 99.3815 88.0566 99.3747 88.0576C99.368 88.0586 99.3619 88.0622 99.3578 88.0676C99.3537 88.0731 99.3519 88.0799 99.3529 88.0867C99.3539 88.0934 99.3575 88.0995 99.3629 88.1036C99.485 88.2035 99.6001 88.3117 99.7073 88.4274L100.011 88.7512L100.319 89.0751C100.422 89.183 100.509 89.3115 100.622 89.4092H100.658C100.587 89.267 100.5 89.1327 100.401 89.0082V89.0082Z" fill="#263238"/>
<path d="M94.3305 101.426C94.3305 101.426 91.6988 99.4938 90.7633 100.512C89.8279 101.529 92.403 104.762 93.9244 104.803C94.1187 104.823 94.3149 104.803 94.5013 104.745C94.6877 104.687 94.8603 104.591 95.0088 104.465C95.1572 104.338 95.2784 104.182 95.365 104.007C95.4517 103.832 95.5019 103.641 95.5127 103.446L94.3305 101.426Z" fill="#FFC4C0"/>
<path d="M91.524 101.421C91.4983 101.421 91.524 101.457 91.524 101.457C92.5983 101.519 93.395 102.233 94.0529 102.999C93.9662 102.923 93.8639 102.866 93.753 102.833C93.6422 102.8 93.5255 102.791 93.4111 102.808C93.2966 102.825 93.1872 102.866 93.0903 102.929C92.9934 102.992 92.9115 103.076 92.8502 103.174C92.8502 103.2 92.8502 103.231 92.8913 103.215C93.0421 103.11 93.2215 103.054 93.4053 103.054C93.5891 103.054 93.7684 103.11 93.9193 103.215C94.1735 103.392 94.4094 103.593 94.6234 103.817C94.6954 103.889 94.8291 103.791 94.7674 103.703C94.3716 102.475 92.8604 101.103 91.524 101.421Z" fill="#263238"/>
<path d="M95.3587 110.684C98.2063 113.557 94.5312 127.548 91.9252 132.241C90.5991 134.631 85.5311 138.07 85.3666 138.018C85.2021 137.967 84.9451 135.279 85.3666 134.677C85.7881 134.076 88.0394 131.876 89.3295 129.537C91.5911 125.425 94.6083 111.033 94.6237 110.807C94.6391 110.581 95.1017 110.421 95.3587 110.684Z" fill="#455A64"/>
<path d="M180.786 61.3767C180.751 61.6147 180.788 61.8576 180.892 62.0745C180.996 62.2914 181.162 62.4726 181.369 62.595C181.576 62.7174 181.814 62.7756 182.054 62.7621C182.294 62.7486 182.525 62.6641 182.717 62.5192C182.909 62.3744 183.053 62.1757 183.132 61.9485C183.211 61.7214 183.221 61.4759 183.16 61.2433C183.099 61.0107 182.97 60.8015 182.79 60.6422C182.61 60.4829 182.386 60.3808 182.148 60.3487C181.831 60.3048 181.51 60.3883 181.254 60.581C180.999 60.7738 180.83 61.0599 180.786 61.3767V61.3767Z" fill="#1C9B88"/>
<path d="M160.621 15.1476C160.586 15.3855 160.623 15.6284 160.727 15.8453C160.831 16.0622 160.997 16.2434 161.204 16.3658C161.41 16.4883 161.649 16.5464 161.889 16.5329C162.129 16.5194 162.36 16.4349 162.552 16.29C162.744 16.1452 162.888 15.9466 162.967 15.7194C163.046 15.4922 163.056 15.2467 162.995 15.0141C162.934 14.7815 162.805 14.5723 162.625 14.413C162.445 14.2538 162.221 14.1516 161.983 14.1196C161.666 14.077 161.345 14.1611 161.09 14.3536C160.835 14.546 160.667 14.8314 160.621 15.1476V15.1476Z" fill="#1C9B88"/>
<path d="M204.922 76.5603C204.905 76.6794 204.923 76.801 204.975 76.9095C205.027 77.0181 205.11 77.1087 205.214 77.17C205.318 77.2312 205.437 77.2602 205.557 77.2533C205.677 77.2464 205.793 77.2039 205.889 77.1312C205.985 77.0585 206.057 76.9589 206.096 76.8451C206.135 76.7314 206.139 76.6085 206.109 76.4922C206.078 76.3758 206.013 76.2713 205.923 76.1919C205.832 76.1125 205.72 76.0618 205.601 76.0463C205.443 76.0257 205.283 76.0681 205.156 76.1643C205.029 76.2605 204.945 76.4027 204.922 76.5603V76.5603Z" fill="#1C9B88"/>
<path d="M13.6478 24.4715C13.6304 24.5906 13.6489 24.7122 13.7009 24.8208C13.7528 24.9293 13.8359 25.02 13.9395 25.0812C14.0431 25.1424 14.1626 25.1714 14.2828 25.1645C14.4029 25.1576 14.5183 25.1151 14.6142 25.0424C14.7101 24.9698 14.7823 24.8702 14.8215 24.7564C14.8606 24.6426 14.8651 24.5197 14.8342 24.4034C14.8033 24.2871 14.7385 24.1826 14.6481 24.1032C14.5577 24.0238 14.4456 23.9731 14.3263 23.9575C14.1684 23.937 14.0087 23.9794 13.8817 24.0755C13.7548 24.1717 13.6708 24.3139 13.6478 24.4715V24.4715Z" fill="#37474F"/>
<path d="M190.787 108.572C190.77 108.691 190.789 108.813 190.84 108.921C190.892 109.03 190.976 109.121 191.079 109.182C191.183 109.243 191.302 109.272 191.422 109.265C191.543 109.258 191.658 109.216 191.754 109.143C191.85 109.07 191.922 108.971 191.961 108.857C192 108.743 192.005 108.62 191.974 108.504C191.943 108.388 191.878 108.283 191.788 108.204C191.697 108.124 191.585 108.074 191.466 108.058C191.308 108.039 191.149 108.082 191.023 108.178C190.896 108.274 190.812 108.415 190.787 108.572Z" fill="#37474F"/>
<path d="M4.3597 76.329C4.34235 76.4481 4.36081 76.5697 4.41275 76.6782C4.4647 76.7868 4.54778 76.8774 4.6514 76.9386C4.75502 76.9999 4.87452 77.0289 4.99467 77.022C5.11483 77.0151 5.23022 76.9726 5.32615 76.8999C5.42208 76.8272 5.49422 76.7276 5.53339 76.6138C5.57257 76.5 5.57697 76.3772 5.5461 76.2608C5.51523 76.1445 5.45045 76.04 5.36 75.9606C5.26955 75.8812 5.15753 75.8305 5.03819 75.815C4.88049 75.7958 4.7215 75.8387 4.59487 75.9346C4.46824 76.0305 4.3839 76.172 4.3597 76.329V76.329Z" fill="#37474F"/>
<path d="M97.307 17.3938C97.2896 17.5129 97.3081 17.6344 97.36 17.743C97.412 17.8515 97.495 17.9422 97.5987 18.0034C97.7023 18.0646 97.8218 18.0936 97.9419 18.0867C98.0621 18.0798 98.1775 18.0373 98.2734 17.9647C98.3693 17.892 98.4415 17.7924 98.4806 17.6786C98.5198 17.5648 98.5243 17.4419 98.4934 17.3256C98.4625 17.2093 98.3977 17.1048 98.3073 17.0254C98.2168 16.946 98.1048 16.8953 97.9854 16.8798C97.8275 16.8592 97.6679 16.9016 97.5409 16.9977C97.414 17.0939 97.3299 17.2362 97.307 17.3938V17.3938Z" fill="#37474F"/>
<path d="M231.635 79.0018C231.618 79.1207 231.636 79.242 231.688 79.3503C231.74 79.4587 231.823 79.5492 231.926 79.6104C232.029 79.6716 232.149 79.7008 232.269 79.6942C232.389 79.6876 232.504 79.6455 232.6 79.5733C232.696 79.5012 232.768 79.4021 232.808 79.2887C232.847 79.1754 232.853 79.0528 232.822 78.9365C232.792 78.8202 232.728 78.7155 232.639 78.6356C232.549 78.5558 232.438 78.5043 232.319 78.4878C232.16 78.4672 232 78.5094 231.872 78.6055C231.744 78.7015 231.659 78.8438 231.635 79.0018V79.0018Z" fill="#37474F"/>
<path d="M92.1097 67.0462C92.0924 67.1653 92.1108 67.2868 92.1628 67.3954C92.2147 67.504 92.2978 67.5946 92.4014 67.6558C92.505 67.717 92.6245 67.746 92.7447 67.7391C92.8648 67.7322 92.9802 67.6897 93.0761 67.6171C93.1721 67.5444 93.2442 67.4448 93.2834 67.331C93.3226 67.2172 93.327 67.0943 93.2961 66.978C93.2652 66.8617 93.2005 66.7572 93.11 66.6778C93.0196 66.5984 92.9075 66.5477 92.7882 66.5322C92.7099 66.5213 92.6302 66.526 92.5537 66.5459C92.4772 66.5659 92.4054 66.6007 92.3424 66.6485C92.2793 66.6962 92.2264 66.7559 92.1864 66.8242C92.1465 66.8924 92.1204 66.9678 92.1097 67.0462Z" fill="#37474F"/>
<path d="M149.93 22.2716C149.913 22.3907 149.931 22.5123 149.983 22.6208C150.035 22.7294 150.118 22.8201 150.222 22.8813C150.325 22.9425 150.445 22.9715 150.565 22.9646C150.685 22.9577 150.801 22.9152 150.896 22.8425C150.992 22.7698 151.065 22.6703 151.104 22.5565C151.143 22.4427 151.147 22.3198 151.116 22.2035C151.086 22.0871 151.021 21.9826 150.93 21.9032C150.84 21.8238 150.728 21.7732 150.608 21.7576C150.451 21.7384 150.292 21.7813 150.165 21.8772C150.039 21.9732 149.954 22.1146 149.93 22.2716V22.2716Z" fill="#37474F"/>
<path d="M150.546 63.8594C150.529 63.9785 150.547 64.1 150.599 64.2086C150.651 64.3172 150.734 64.4078 150.838 64.469C150.942 64.5302 151.061 64.5592 151.181 64.5523C151.301 64.5454 151.417 64.5029 151.513 64.4303C151.609 64.3576 151.681 64.258 151.72 64.1442C151.759 64.0304 151.764 63.9075 151.733 63.7912C151.702 63.6749 151.637 63.5704 151.547 63.491C151.456 63.4116 151.344 63.3609 151.225 63.3454C151.067 63.3248 150.907 63.3672 150.78 63.4634C150.653 63.5595 150.569 63.7018 150.546 63.8594V63.8594Z" fill="#37474F"/>
<path d="M21.4095 103.905C21.3922 104.024 21.4106 104.146 21.4626 104.254C21.5145 104.363 21.5976 104.454 21.7012 104.515C21.8048 104.576 21.9243 104.605 22.0445 104.598C22.1646 104.591 22.28 104.549 22.376 104.476C22.4719 104.403 22.544 104.304 22.5832 104.19C22.6224 104.076 22.6268 103.953 22.5959 103.837C22.565 103.721 22.5003 103.616 22.4098 103.537C22.3194 103.457 22.2073 103.407 22.088 103.391C21.9301 103.371 21.7704 103.413 21.6434 103.509C21.5165 103.605 21.4325 103.748 21.4095 103.905V103.905Z" fill="#455A64"/>
<path d="M147.206 33.5796C147.171 33.8176 147.208 34.0604 147.312 34.2774C147.416 34.4943 147.582 34.6754 147.788 34.7979C147.995 34.9203 148.234 34.9785 148.474 34.965C148.714 34.9515 148.945 34.8669 149.137 34.7221C149.329 34.5772 149.473 34.3786 149.552 34.1514C149.631 33.9242 149.64 33.6788 149.579 33.4462C149.518 33.2136 149.39 33.0044 149.21 32.8451C149.029 32.6858 148.806 32.5837 148.568 32.5516C148.251 32.5104 147.931 32.595 147.677 32.7873C147.422 32.9795 147.253 33.264 147.206 33.5796Z" fill="#37474F"/>
<path d="M34.2389 33.6773C34.2042 33.9155 34.2412 34.1586 34.3451 34.3757C34.449 34.5929 34.6151 34.7742 34.8223 34.8966C35.0296 35.019 35.2686 35.077 35.5089 35.0632C35.7492 35.0494 35.98 34.9644 36.1718 34.8191C36.3637 34.6737 36.508 34.4746 36.5863 34.247C36.6646 34.0194 36.6735 33.7736 36.6117 33.541C36.55 33.3083 36.4204 33.0993 36.2395 32.9405C36.0586 32.7817 35.8346 32.6804 35.5959 32.6493C35.2798 32.6068 34.9598 32.691 34.7055 32.8836C34.4513 33.0762 34.2836 33.3615 34.2389 33.6773Z" fill="#37474F"/>
<path d="M182.409 98.8062L180.692 98.2357C180.692 98.2357 181.864 97.6292 181.864 95.7531C181.864 93.877 180.256 93.1368 180.949 91.4355L182.862 91.9495C182.648 92.3958 182.529 92.882 182.514 93.3769C182.499 93.8717 182.588 94.3641 182.774 94.8227C183.278 95.9073 183.74 97.1871 182.409 98.8062Z" fill="#1C9B88"/>
<path d="M84.796 57.9381L83.0792 57.3675C83.0792 57.3675 84.2512 56.761 84.2512 54.8849C84.2512 53.0088 82.6423 52.2687 83.3362 50.5673L85.2483 51.0813C85.0343 51.5277 84.916 52.0139 84.901 52.5087C84.8859 53.0035 84.9745 53.496 85.1609 53.9546C85.6698 55.0391 86.1273 56.319 84.796 57.9381Z" fill="#1C9B88"/>
<path d="M133.348 6.80022L135.045 6.168C135.045 6.168 134.531 7.37076 135.702 8.83052C136.874 10.2903 138.596 9.85852 139.131 11.6061L137.322 12.4131C137.207 11.9313 136.993 11.4789 136.693 11.0849C136.392 10.691 136.013 10.3643 135.579 10.1258C134.5 9.60152 133.338 8.90762 133.348 6.80022Z" fill="#1C9B88"/>
<path d="M104.024 67.1541L105.72 66.5167C105.72 66.5167 105.206 67.7246 106.378 69.1793C107.55 70.6339 109.272 70.2073 109.807 71.9549L107.997 72.767C107.883 72.2838 107.668 71.8301 107.367 71.4352C107.066 71.0403 106.685 70.713 106.25 70.4745C105.175 69.9554 104.014 69.2512 104.024 67.1541Z" fill="#1C9B88"/>
<path d="M5.36203 82.9853L7.05822 82.348C7.05822 82.348 6.54421 83.5559 7.71613 85.0105C8.88805 86.4651 10.61 86.0385 11.1445 87.7861L9.33524 88.5931C9.22059 88.1113 9.00631 87.6588 8.7062 87.2649C8.40609 86.871 8.02681 86.5442 7.59277 86.3058C6.51337 85.7866 5.35175 85.0824 5.36203 82.9853Z" fill="#455A64"/>
<path d="M163.88 80.9293L163.633 79.1354C163.633 79.1354 164.692 79.9167 166.378 79.084C168.064 78.2514 168.012 76.4832 169.842 76.3547L170.228 78.2925C169.732 78.2986 169.243 78.4082 168.793 78.6145C168.342 78.8208 167.94 79.119 167.611 79.4901C166.866 80.4256 165.92 81.3816 163.88 80.9293Z" fill="#37474F"/>
<path d="M95.466 29.0102L95.2245 27.2163C95.2245 27.2163 96.2833 27.9976 97.9641 27.1649C99.6449 26.3322 99.5986 24.5641 101.428 24.4356L101.824 26.3836C101.329 26.3894 100.84 26.4989 100.389 26.7052C99.9386 26.9115 99.5362 27.2099 99.208 27.5812C98.4524 28.5064 97.5066 29.4676 95.466 29.0102Z" fill="#455A64"/>
<path d="M98.5457 91.934L98.2989 90.1453C98.2989 90.1453 99.3578 90.9266 101.039 90.0939C102.719 89.2612 102.673 87.4931 104.503 87.3594L104.894 89.3024C104.398 89.3081 103.909 89.4177 103.459 89.6239C103.008 89.8302 102.606 90.1286 102.277 90.5C101.527 91.4303 100.581 92.4121 98.5457 91.934Z" fill="#37474F"/>
<path d="M19.5847 37.7944L19.338 36.0006C19.338 36.0006 20.3968 36.7818 22.0828 35.9492C23.7687 35.1165 23.7173 33.3535 25.5471 33.2198L25.9326 35.1627C25.4373 35.1672 24.9485 35.2757 24.4978 35.4811C24.0472 35.6865 23.6446 35.9843 23.3164 36.3552C22.5505 37.2907 21.6047 38.2673 19.5847 37.7944Z" fill="#455A64"/>
<path d="M77.9746 102.075L77.6302 103.854C77.6302 103.854 76.8798 102.769 75.0191 103.021C73.1584 103.273 72.6342 104.959 70.8609 104.491L71.1127 102.533C71.5839 102.687 72.0821 102.74 72.5753 102.69C73.0684 102.639 73.5455 102.486 73.9757 102.24C74.9831 101.592 76.1962 100.97 77.9746 102.075Z" fill="#1C9B88"/>
<path d="M168.413 53.5331L165.519 52.7158C165.519 52.7158 164.147 56.3138 167.01 57.3418C167.01 57.3418 166.033 55.4195 168.413 53.5331Z" fill="#455A64"/>
<path d="M167.935 61.1557L170.418 59.5417C170.418 59.5417 170.053 57.1825 167.01 57.3418C167.01 57.3418 169.323 59.0329 167.935 61.1557Z" fill="#455A64"/>
<path d="M192.458 75.2136L194.344 74.1856C194.344 74.1856 195.886 76.514 194.031 77.686C194.051 77.6603 194.432 76.1491 192.458 75.2136Z" fill="#455A64"/>
<path d="M194 80.4975L191.996 79.7522C191.996 79.7522 191.878 78.0303 194.052 77.6603C194.052 77.6603 192.69 79.2177 194 80.4975Z" fill="#455A64"/>
<path d="M17.1121 80.1583L19.019 79.1303C19.019 79.1303 20.561 81.4587 18.7055 82.6306C18.7055 82.6255 19.0704 81.1143 17.1121 80.1583Z" fill="#1C9B88"/>
<path d="M18.6547 85.4628L16.6501 84.7175C16.6501 84.7175 16.5318 82.9956 18.7061 82.6255C18.7061 82.6255 17.344 84.1829 18.6547 85.4628Z" fill="#1C9B88"/>
<path d="M101.768 114.576C101.802 114.338 101.765 114.095 101.661 113.878C101.558 113.661 101.392 113.48 101.185 113.357C100.978 113.235 100.739 113.177 100.499 113.19C100.259 113.204 100.028 113.288 99.8365 113.433C99.6445 113.578 99.5 113.777 99.4212 114.004C99.3424 114.231 99.3329 114.477 99.3939 114.709C99.4548 114.942 99.5836 115.151 99.7637 115.31C99.9439 115.47 100.167 115.572 100.406 115.604C100.722 115.648 101.044 115.564 101.299 115.371C101.555 115.179 101.723 114.893 101.768 114.576V114.576Z" fill="#37474F"/>
<path d="M0.468866 48.2286C0.503402 47.9907 0.466447 47.7478 0.362672 47.5309C0.258897 47.314 0.0929917 47.1328 -0.113964 47.0104C-0.32092 46.8879 -0.559585 46.8298 -0.799664 46.8433C-1.03974 46.8568 -1.2704 46.9413 -1.46234 47.0862C-1.65427 47.231 -1.79883 47.4296 -1.87764 47.6568C-1.95645 47.884 -1.96595 48.1295 -1.90496 48.3621C-1.84398 48.5947 -1.71523 48.8039 -1.53509 48.9632C-1.35495 49.1224 -1.13156 49.2246 -0.893246 49.2566C-0.576579 49.2992 -0.255903 49.2151 -0.000867915 49.0226C0.254167 48.8302 0.422976 48.5448 0.468866 48.2286V48.2286Z" fill="#455A64"/>
<path d="M93.6007 46.2806C93.6352 46.0426 93.5983 45.7997 93.4945 45.5828C93.3907 45.3659 93.2248 45.1847 93.0179 45.0623C92.8109 44.9399 92.5722 44.8817 92.3322 44.8952C92.0921 44.9087 91.8614 44.9932 91.6695 45.1381C91.4776 45.283 91.333 45.4816 91.2542 45.7088C91.1754 45.9359 91.1659 46.1814 91.2269 46.414C91.2879 46.6466 91.4166 46.8558 91.5967 47.0151C91.7769 47.1744 92.0003 47.2765 92.2386 47.3086C92.5553 47.3511 92.876 47.2671 93.131 47.0746C93.386 46.8821 93.5548 46.5968 93.6007 46.2806V46.2806Z" fill="#37474F"/>
<path d="M17.8117 59.0278L18.043 60.8216C18.043 60.8216 16.9841 60.0403 15.2982 60.873C13.6123 61.7057 13.6637 63.4687 11.8338 63.6024L11.4483 61.6594C11.9438 61.6534 12.4326 61.5437 12.8832 61.3374C13.3338 61.1312 13.7362 60.8329 14.0646 60.4618C14.8253 59.5315 15.7711 58.5497 17.8117 59.0278Z" fill="#1C9B88"/>
<path d="M202.697 103.484L205.586 104.301C205.586 104.301 206.963 100.703 204.1 99.6749C204.111 99.6595 205.072 101.582 202.697 103.484Z" fill="#37474F"/>
<path d="M203.17 95.8456L200.688 97.4647C200.688 97.4647 201.053 99.8188 204.101 99.6595C204.111 99.6595 201.788 97.9684 203.17 95.8456Z" fill="#37474F"/>
<path d="M74.9216 81.0629L77.8103 81.8853C77.8103 81.8853 79.1879 78.2873 76.3249 77.2593C76.3249 77.2696 77.2963 79.1766 74.9216 81.0629Z" fill="#455A64"/>
<path d="M75.3948 73.4403L72.9122 75.0543C72.9122 75.0543 73.2772 77.4135 76.3252 77.2542C76.3252 77.2696 74.0122 75.5631 75.3948 73.4403Z" fill="#455A64"/>
<path d="M167.956 121.047L166.049 122.075C166.049 122.075 164.507 119.747 166.363 118.57C166.363 118.58 165.977 120.091 167.956 121.047Z" fill="#37474F"/>
<path d="M166.413 115.748L168.418 116.493C168.418 116.493 168.531 118.21 166.362 118.58C166.362 118.58 167.724 117.022 166.413 115.748Z" fill="#37474F"/>
<path d="M67.9004 30.655L65.9935 31.683C65.9935 31.683 64.4514 29.3545 66.307 28.1826C66.2864 28.1929 65.9009 29.7041 67.9004 30.655Z" fill="#1C9B88"/>
<path d="M66.333 25.3556L68.3427 26.1009C68.3427 26.1009 68.4558 27.8228 66.2867 28.1929C66.2867 28.1929 67.6489 26.6355 66.333 25.3556Z" fill="#1C9B88"/>
<path d="M252.941 21.3618C252.923 21.4809 252.942 21.6025 252.994 21.7111C253.046 21.8196 253.129 21.9103 253.232 21.9715C253.336 22.0327 253.456 22.0617 253.576 22.0548C253.696 22.0479 253.811 22.0054 253.907 21.9327C254.003 21.8601 254.075 21.7605 254.114 21.6467C254.154 21.5329 254.158 21.41 254.127 21.2937C254.096 21.1774 254.032 21.0729 253.941 20.9935C253.851 20.9141 253.739 20.8634 253.619 20.8478C253.461 20.8273 253.302 20.8697 253.175 20.9658C253.048 21.062 252.964 21.2042 252.941 21.3618V21.3618Z" fill="#455A64"/>
<path d="M251.137 59.2334L249.42 58.6628C249.42 58.6628 250.592 58.0563 250.592 56.1802C250.592 54.3041 248.983 53.5639 249.677 51.8626L251.589 52.3766C251.375 52.823 251.257 53.3092 251.242 53.804C251.227 54.2988 251.315 54.7913 251.502 55.2499C252.011 56.3344 252.468 57.6143 251.137 59.2334Z" fill="#1C9B88"/>
<path d="M250.499 89.0916L252.195 88.4543C252.195 88.4543 251.681 89.6622 252.853 91.1168C254.025 92.5714 255.747 92.1448 256.281 93.8924L254.472 94.6994C254.357 94.217 254.142 93.7642 253.841 93.3701C253.54 92.9761 253.16 92.6497 252.724 92.4121C251.65 91.8981 250.488 91.1939 250.499 89.0916Z" fill="#455A64"/>
<path d="M233.305 37.3113L233.059 35.5174C233.059 35.5174 234.118 36.2987 235.803 35.466C237.489 34.6333 237.438 32.8652 239.268 32.7367L239.653 34.6744C239.158 34.6805 238.669 34.7902 238.218 34.9965C237.768 35.2027 237.365 35.501 237.037 35.8721C236.292 36.8075 235.346 37.7841 233.305 37.3113Z" fill="#1C9B88"/>
<path d="M258.677 48.6501C258.711 48.4121 258.674 48.1693 258.571 47.9524C258.467 47.7355 258.301 47.5543 258.094 47.4318C257.887 47.3094 257.648 47.2513 257.408 47.2648C257.168 47.2782 256.938 47.3628 256.746 47.5076C256.554 47.6525 256.409 47.8511 256.33 48.0783C256.252 48.3055 256.242 48.551 256.303 48.7835C256.364 49.0161 256.493 49.2254 256.673 49.3846C256.853 49.5439 257.076 49.6461 257.315 49.6781C257.631 49.7207 257.952 49.6366 258.207 49.4441C258.462 49.2516 258.631 48.9663 258.677 48.6501Z" fill="#455A64"/>
<path d="M222.419 26.1215L220.512 27.1495C220.512 27.1495 218.97 24.8211 220.826 23.6491C220.826 23.6594 220.44 25.1706 222.419 26.1215Z" fill="#37474F"/>
<path d="M220.872 20.8221L222.882 21.5674C222.882 21.5674 222.995 23.2893 220.826 23.6594C220.826 23.6594 222.188 22.102 220.872 20.8221Z" fill="#37474F"/>
<path d="M65.8447 61.1197L65.5312 63.2631C65.5312 63.2631 62.7453 63.0986 62.9201 60.909C62.9303 60.909 63.9069 62.122 65.8447 61.1197Z" fill="#1C9B88"/>
<path d="M60.7049 59.1665L62.5039 58.01C62.5039 58.01 63.9482 58.9507 62.9408 60.909C62.9305 60.909 62.5039 58.8838 60.7049 59.1665Z" fill="#1C9B88"/>
<path d="M153.198 37.9574L157.066 70.8291C157.171 71.7081 157.618 72.5104 158.311 73.0611C159.004 73.6117 159.887 73.8661 160.767 73.7688L212.922 67.6344C213.804 67.5293 214.608 67.0786 215.159 66.381C215.709 65.6834 215.96 64.796 215.857 63.9135L211.988 31.0213C211.89 30.2005 211.471 29.4521 210.822 28.9403C210.173 28.4284 209.347 28.195 208.526 28.2912L155.932 34.4585C155.521 34.5063 155.125 34.635 154.765 34.8373C154.404 35.0395 154.088 35.3113 153.834 35.6367C153.579 35.9622 153.392 36.3349 153.283 36.7333C153.174 37.1317 153.145 37.5477 153.198 37.9574V37.9574Z" fill="#263238"/>
<path d="M164.993 65.2004C165.064 65.8063 165.313 66.3775 165.709 66.8419C166.104 67.3062 166.629 67.6427 167.216 67.809C167.803 67.9752 168.426 67.9636 169.006 67.7756C169.586 67.5876 170.098 67.2318 170.476 66.753C170.854 66.2743 171.082 65.6942 171.13 65.0861C171.178 64.478 171.045 63.8692 170.747 63.3368C170.45 62.8044 170.001 62.3722 169.457 62.0951C168.914 61.8179 168.3 61.7081 167.695 61.7796C166.883 61.8754 166.142 62.2895 165.636 62.9309C165.129 63.5724 164.898 64.3886 164.993 65.2004V65.2004Z" fill="#455A64"/>
<path d="M161.228 65.6444C161.299 66.2503 161.548 66.8216 161.943 67.2859C162.339 67.7502 162.863 68.0868 163.45 68.253C164.037 68.4192 164.66 68.4076 165.241 68.2196C165.821 68.0317 166.332 67.6758 166.71 67.1971C167.089 66.7183 167.316 66.1382 167.364 65.5301C167.413 64.922 167.279 64.3132 166.982 63.7808C166.684 63.2484 166.235 62.8163 165.692 62.5391C165.148 62.2619 164.535 62.1521 163.929 62.2237C163.117 62.3195 162.377 62.7336 161.87 63.375C161.364 64.0164 161.133 64.8327 161.228 65.6444V65.6444Z" fill="#1C9B88"/>
<path d="M198.025 35.2625L205.633 34.3675C206.58 34.256 207.438 34.9335 207.549 35.8807L208.043 40.0784C208.155 41.0256 207.477 41.8838 206.53 41.9952L198.923 42.8902C197.976 43.0016 197.117 42.3241 197.006 41.3769L196.512 37.1792C196.401 36.2321 197.078 35.3739 198.025 35.2625Z" fill="#1C9B88"/>
<path d="M160.788 43.8903L165.779 43.3024C166.334 43.2365 166.84 42.9531 167.186 42.5145C167.532 42.0759 167.69 41.5179 167.625 40.9629V40.9629C167.56 40.4085 167.278 39.9025 166.84 39.5563C166.402 39.2101 165.844 39.052 165.29 39.1169L160.295 39.7048C159.74 39.7707 159.234 40.0541 158.888 40.4927C158.541 40.9313 158.384 41.4893 158.448 42.0443V42.0443C158.514 42.5991 158.798 43.1051 159.236 43.4512C159.675 43.7973 160.233 43.9552 160.788 43.8903Z" fill="#455A64"/>
<path d="M182.127 60.3975L210.045 57.1129L210.206 58.4849L182.288 61.7695L182.127 60.3975Z" fill="#F8F8F8"/>
<path d="M190.641 62.4904L210.404 60.1652L210.566 61.5372L190.802 63.8624L190.641 62.4904Z" fill="#F8F8F8"/>
<path d="M169.296 38.644L183.221 37.0058L183.382 38.3778L169.458 40.016L169.296 38.644Z" fill="#F8F8F8"/>
</g>
<defs>
<clipPath id="clip0_819_1535">
<rect width="257" height="257" fill="white" transform="matrix(-1 0 0 1 257 0)"/>
</clipPath>
</defs>
</svg>
