<svg width="43" height="27" viewBox="0 0 43 27" fill="none" xmlns="http://www.w3.org/2000/svg">
<rect x="21.2598" y="0.659882" width="6.25165" height="30.0657" rx="3.12582" transform="rotate(45 21.2598 0.659882)" fill="#1C9B88"/>
<path fill-rule="evenodd" clip-rule="evenodd" d="M42.1874 4.62342C42.1874 3.16717 41.0069 1.98665 39.5506 1.98665C39.3528 1.98665 39.1601 2.00843 38.9747 2.04973C37.9208 1.8274 36.7791 2.12544 35.9607 2.94385L19.4204 19.4841C18.1333 20.7712 18.1333 22.8581 19.4204 24.1453C20.7076 25.4324 22.7945 25.4324 24.0816 24.1453L35.5955 12.6314V22.4216C35.5955 24.2419 37.0712 25.7176 38.8915 25.7176C40.7118 25.7176 42.1874 24.2419 42.1874 22.4216V4.62343L42.1874 4.62342Z" fill="#1C9B88"/>
</svg>
